<?xml version="1.0" standalone="no"?><!DOCTYPE svg PUBLIC "-//W3C//DTD SVG 1.1//EN" "http://www.w3.org/Graphics/SVG/1.1/DTD/svg11.dtd"><svg height="262" node-id="1" sillyvg="true" template-height="262" template-width="456" version="1.1" viewBox="0 0 456 262" width="456" xmlns="http://www.w3.org/2000/svg" xmlns:xlink="http://www.w3.org/1999/xlink"><defs node-id="73"><linearGradient gradientUnits="userSpaceOnUse" id="未命名的渐变_26" node-id="5" spreadMethod="pad" x1="1" x2="1" y1="91.35" y2="181.12"><stop offset="0" stop-color="#81cfff"></stop><stop offset="1" stop-color="#5ecfff" stop-opacity="0"></stop></linearGradient><linearGradient gradientUnits="userSpaceOnUse" id="未命名的渐变_26-2" node-id="8" spreadMethod="pad" x1="455.01" x2="455.01" y1="72.11" y2="161.88"><stop offset="0" stop-color="#81cfff"></stop><stop offset="1" stop-color="#5ecfff" stop-opacity="0"></stop></linearGradient><linearGradient gradientUnits="userSpaceOnUse" id="未命名的渐变_26-3" node-id="9" spreadMethod="pad" x1="40.9" x2="40.9" y1="143.88" y2="199.51"><stop offset="0" stop-color="#81cfff"></stop><stop offset="1" stop-color="#5ecfff" stop-opacity="0"></stop></linearGradient><linearGradient gradientUnits="userSpaceOnUse" id="未命名的渐变_26-4" node-id="10" spreadMethod="pad" x1="64.97" x2="64.97" y1="95.36" y2="123.17"><stop offset="0" stop-color="#81cfff"></stop><stop offset="1" stop-color="#5ecfff" stop-opacity="0"></stop></linearGradient><linearGradient gradientUnits="userSpaceOnUse" id="未命名的渐变_26-5" node-id="11" spreadMethod="pad" x1="397.23" x2="397.23" y1="104.2" y2="132.02"><stop offset="0" stop-color="#81cfff"></stop><stop offset="1" stop-color="#5ecfff" stop-opacity="0"></stop></linearGradient><linearGradient gradientUnits="userSpaceOnUse" id="未命名的渐变_26-6" node-id="12" spreadMethod="pad" x1="424.75" x2="424.75" y1="133.49" y2="189.13"><stop offset="0" stop-color="#81cfff"></stop><stop offset="1" stop-color="#5ecfff" stop-opacity="0"></stop></linearGradient><linearGradient gradientUnits="userSpaceOnUse" id="未命名的渐变_26-7" node-id="13" spreadMethod="pad" x1="232.75" x2="232.75" y1="224.43" y2="262.12"><stop offset="0" stop-color="#81cfff"></stop><stop offset="1" stop-color="#5ecfff" stop-opacity="0"></stop></linearGradient><linearGradient gradientUnits="userSpaceOnUse" id="未命名的渐变_26-8" node-id="14" spreadMethod="pad" x1="349.36" x2="349.36" y1="26.68" y2="204.03"><stop offset="0" stop-color="#81cfff"></stop><stop offset="1" stop-color="#5ecfff" stop-opacity="0"></stop></linearGradient><linearGradient gradientUnits="userSpaceOnUse" id="未命名的渐变_26-9" node-id="15" spreadMethod="pad" x1="201.45" x2="201.45" y1="55.61" y2="204.03"><stop offset="0" stop-color="#81cfff"></stop><stop offset="1" stop-color="#5ecfff" stop-opacity="0"></stop></linearGradient><linearGradient gradientUnits="userSpaceOnUse" id="未命名的渐变_26-10" node-id="16" spreadMethod="pad" x1="122.98" x2="122.98" y1="26.68" y2="204.03"><stop offset="0" stop-color="#81cfff"></stop><stop offset="1" stop-color="#5ecfff" stop-opacity="0"></stop></linearGradient><linearGradient gradientUnits="userSpaceOnUse" id="未命名的渐变_26-11" node-id="17" spreadMethod="pad" x1="273.51" x2="273.51" y1="0" y2="209.54"><stop offset="0" stop-color="#81cfff"></stop><stop offset="1" stop-color="#5ecfff" stop-opacity="0"></stop></linearGradient><clipPath id="clip-path" node-id="18"><path d="M 132.71 143.17 L 132.71 134.53 C 134.55 134.38 136.33 134.33 138.03 134.33 C 139.73 134.33 141.21 134.33 142.68 134.44 C 150.26 134.80 159.30 137.80 164.98 143.07 C 170.66 148.34 172.82 154.64 172.82 163.65 L 172.82 172.29 C 172.82 163.29 170.65 156.97 164.98 151.71 C 159.31 146.45 150.26 143.44 142.68 143.08 C 141.21 143.01 139.68 142.96 138.03 142.96 C 136.38 142.96 134.55 143.00 132.71 143.17 Z" fill="#000000" fill-rule="nonzero" node-id="142" stroke="none" target-height="37.95999" target-width="40.11" target-x="132.71" target-y="134.33"></path></clipPath></defs><g node-id="266"><path d="M 1.00 91.35 L 1.00 181.12" fill="none" group-id="1" node-id="148" stroke="url(#未命名的渐变_26)" stroke-linecap="butt" stroke-width="2" target-height="89.77" target-width="0" target-x="1" target-y="91.35"></path><path d="M 455.01 72.11 L 455.01 161.88" fill="none" group-id="1" node-id="150" stroke="url(#未命名的渐变_26-2)" stroke-linecap="butt" stroke-width="2" target-height="89.770004" target-width="0" target-x="455.01" target-y="72.11"></path><path d="M 40.90 143.88 L 40.90 199.51" fill="none" group-id="1" node-id="152" stroke="url(#未命名的渐变_26-3)" stroke-linecap="butt" stroke-width="2" target-height="55.62999" target-width="0" target-x="40.9" target-y="143.88"></path><path d="M 64.97 95.36 L 64.97 123.17" fill="none" group-id="1" node-id="154" stroke="url(#未命名的渐变_26-4)" stroke-linecap="butt" stroke-width="2" target-height="27.809998" target-width="0" target-x="64.97" target-y="95.36"></path><path d="M 397.23 104.20 L 397.23 132.02" fill="none" group-id="1" node-id="156" stroke="url(#未命名的渐变_26-5)" stroke-linecap="butt" stroke-width="2" target-height="27.820007" target-width="0" target-x="397.23" target-y="104.2"></path><path d="M 424.75 133.49 L 424.75 189.13" fill="none" group-id="1" node-id="158" stroke="url(#未命名的渐变_26-6)" stroke-linecap="butt" stroke-width="2" target-height="55.64" target-width="0" target-x="424.75" target-y="133.49"></path><g node-id="267"><path d="M 412.28 262.12 C 389.28 239.12 351.28 224.43 232.75 224.43 C 114.22 224.43 76.24 239.10 53.21 262.12 Z" fill="url(#未命名的渐变_26-7)" fill-opacity="0.4" fill-rule="nonzero" group-id="1,2" node-id="162" stroke="none" target-height="37.690002" target-width="359.07" target-x="53.21" target-y="224.43"></path></g><g node-id="268"><g node-id="271"><path d="M 380.66 26.68 L 318.07 26.68 C 316.58 26.62 315.31 27.78 315.25 29.27 L 315.25 201.44 C 315.31 202.93 316.58 204.09 318.07 204.03 L 380.66 204.03 C 382.15 204.09 383.41 202.93 383.48 201.44 L 383.48 29.27 C 383.41 27.78 382.15 26.62 380.66 26.68 Z M 328.30 147.00 C 328.29 147.24 328.19 147.47 328.01 147.64 C 327.83 147.80 327.59 147.88 327.35 147.87 L 323.75 147.87 C 323.51 147.88 323.27 147.80 323.09 147.64 C 322.91 147.47 322.81 147.24 322.80 147.00 L 322.80 127.27 C 322.81 127.03 322.92 126.80 323.09 126.64 C 323.27 126.47 323.51 126.39 323.75 126.40 L 327.35 126.40 C 327.59 126.39 327.83 126.47 328.01 126.64 C 328.18 126.80 328.29 127.03 328.30 127.27 Z M 328.30 116.77 C 328.29 117.01 328.18 117.24 328.01 117.40 C 327.83 117.57 327.59 117.65 327.35 117.64 L 323.75 117.64 C 323.51 117.65 323.27 117.57 323.09 117.40 C 322.92 117.24 322.81 117.01 322.80 116.77 L 322.80 97.00 C 322.81 96.76 322.92 96.53 323.09 96.37 C 323.27 96.20 323.51 96.12 323.75 96.13 L 327.35 96.13 C 327.59 96.12 327.83 96.20 328.01 96.37 C 328.18 96.53 328.29 96.76 328.30 97.00 Z M 328.30 86.53 C 328.29 86.77 328.18 87.00 328.01 87.16 C 327.83 87.33 327.59 87.41 327.35 87.40 L 323.75 87.40 C 323.51 87.41 323.27 87.33 323.09 87.16 C 322.92 87.00 322.81 86.77 322.80 86.53 L 322.80 66.80 C 322.81 66.56 322.92 66.33 323.09 66.17 C 323.27 66.00 323.51 65.92 323.75 65.93 L 327.35 65.93 C 327.59 65.92 327.83 66.00 328.01 66.17 C 328.18 66.33 328.29 66.56 328.30 66.80 Z M 328.30 56.29 C 328.29 56.53 328.18 56.76 328.01 56.92 C 327.83 57.09 327.59 57.17 327.35 57.16 L 323.75 57.16 C 323.51 57.17 323.27 57.09 323.09 56.92 C 322.92 56.76 322.81 56.53 322.80 56.29 L 322.80 36.56 C 322.81 36.32 322.92 36.09 323.09 35.93 C 323.27 35.76 323.51 35.68 323.75 35.69 L 327.35 35.69 C 327.59 35.68 327.83 35.76 328.01 35.93 C 328.18 36.09 328.29 36.32 328.30 36.56 Z M 340.00 147.00 C 339.99 147.24 339.89 147.47 339.71 147.63 C 339.54 147.79 339.30 147.88 339.06 147.87 L 335.45 147.87 C 335.21 147.88 334.97 147.80 334.79 147.63 C 334.62 147.47 334.51 147.24 334.50 147.00 L 334.50 127.27 C 334.53 126.77 334.95 126.38 335.45 126.40 L 339.06 126.40 C 339.56 126.38 339.98 126.77 340.00 127.27 Z M 340.00 116.77 C 339.98 117.27 339.56 117.66 339.06 117.64 L 335.45 117.64 C 334.95 117.66 334.53 117.27 334.50 116.77 L 334.50 97.00 C 334.53 96.50 334.95 96.11 335.45 96.13 L 339.06 96.13 C 339.56 96.11 339.98 96.50 340.00 97.00 Z M 340.00 86.53 C 339.98 87.03 339.56 87.42 339.06 87.40 L 335.45 87.40 C 334.95 87.42 334.53 87.03 334.50 86.53 L 334.50 66.80 C 334.53 66.30 334.95 65.91 335.45 65.93 L 339.06 65.93 C 339.56 65.91 339.98 66.30 340.00 66.80 Z M 340.00 56.29 C 339.98 56.79 339.56 57.18 339.06 57.16 L 335.45 57.16 C 334.95 57.18 334.53 56.79 334.50 56.29 L 334.50 36.56 C 334.53 36.06 334.95 35.67 335.45 35.69 L 339.06 35.69 C 339.56 35.67 339.98 36.06 340.00 36.56 Z M 351.70 147.00 C 351.69 147.24 351.59 147.47 351.41 147.63 C 351.24 147.79 351.00 147.88 350.76 147.87 L 347.15 147.87 C 346.91 147.88 346.67 147.79 346.50 147.63 C 346.32 147.47 346.22 147.24 346.21 147.00 L 346.21 127.27 C 346.23 126.77 346.65 126.38 347.15 126.40 L 350.76 126.40 C 351.26 126.38 351.68 126.77 351.70 127.27 Z M 351.70 116.77 C 351.68 117.27 351.26 117.66 350.76 117.64 L 347.15 117.64 C 346.65 117.66 346.23 117.27 346.21 116.77 L 346.21 97.00 C 346.23 96.50 346.65 96.11 347.15 96.13 L 350.76 96.13 C 351.26 96.11 351.68 96.50 351.70 97.00 Z M 351.70 86.53 C 351.68 87.03 351.26 87.42 350.76 87.40 L 347.15 87.40 C 346.65 87.42 346.23 87.03 346.21 86.53 L 346.21 66.80 C 346.23 66.30 346.65 65.91 347.15 65.93 L 350.76 65.93 C 351.26 65.91 351.68 66.30 351.70 66.80 Z M 351.70 56.29 C 351.68 56.79 351.26 57.18 350.76 57.16 L 347.15 57.16 C 346.65 57.18 346.23 56.79 346.21 56.29 L 346.21 36.56 C 346.23 36.06 346.65 35.67 347.15 35.69 L 350.76 35.69 C 351.26 35.67 351.68 36.06 351.70 36.56 Z M 363.40 147.00 C 363.39 147.24 363.29 147.47 363.11 147.63 C 362.94 147.79 362.70 147.88 362.46 147.87 L 358.85 147.87 C 358.61 147.88 358.37 147.79 358.20 147.63 C 358.02 147.47 357.92 147.24 357.91 147.00 L 357.91 127.27 C 357.93 126.77 358.35 126.38 358.85 126.40 L 362.46 126.40 C 362.96 126.38 363.38 126.77 363.40 127.27 Z M 363.40 116.77 C 363.38 117.27 362.96 117.66 362.46 117.64 L 358.85 117.64 C 358.35 117.66 357.93 117.27 357.91 116.77 L 357.91 97.00 C 357.93 96.50 358.35 96.11 358.85 96.13 L 362.46 96.13 C 362.96 96.11 363.38 96.50 363.40 97.00 Z M 363.40 86.53 C 363.38 87.03 362.96 87.42 362.46 87.40 L 358.85 87.40 C 358.35 87.42 357.93 87.03 357.91 86.53 L 357.91 66.80 C 357.93 66.30 358.35 65.91 358.85 65.93 L 362.46 65.93 C 362.96 65.91 363.38 66.30 363.40 66.80 Z M 363.40 56.29 C 363.38 56.79 362.96 57.18 362.46 57.16 L 358.85 57.16 C 358.35 57.18 357.93 56.79 357.91 56.29 L 357.91 36.56 C 357.93 36.06 358.35 35.67 358.85 35.69 L 362.46 35.69 C 362.96 35.67 363.38 36.06 363.40 36.56 Z M 375.11 147.00 C 375.10 147.24 374.99 147.47 374.82 147.63 C 374.64 147.80 374.40 147.88 374.16 147.87 L 370.55 147.87 C 370.31 147.88 370.07 147.79 369.90 147.63 C 369.72 147.47 369.62 147.24 369.61 147.00 L 369.61 127.27 C 369.63 126.77 370.05 126.38 370.55 126.40 L 374.16 126.40 C 374.66 126.38 375.08 126.77 375.11 127.27 Z M 375.11 116.77 C 375.08 117.27 374.66 117.66 374.16 117.64 L 370.55 117.64 C 370.05 117.66 369.63 117.27 369.61 116.77 L 369.61 97.00 C 369.63 96.50 370.05 96.11 370.55 96.13 L 374.16 96.13 C 374.66 96.11 375.08 96.50 375.11 97.00 Z M 375.11 86.53 C 375.08 87.03 374.66 87.42 374.16 87.40 L 370.55 87.40 C 370.05 87.42 369.63 87.03 369.61 86.53 L 369.61 66.80 C 369.63 66.30 370.05 65.91 370.55 65.93 L 374.16 65.93 C 374.66 65.91 375.08 66.30 375.11 66.80 Z M 375.11 56.29 C 375.08 56.79 374.66 57.18 374.16 57.16 L 370.55 57.16 C 370.05 57.18 369.63 56.79 369.61 56.29 L 369.61 36.56 C 369.63 36.06 370.05 35.67 370.55 35.69 L 374.16 35.69 C 374.66 35.67 375.08 36.06 375.11 36.56 Z" fill="url(#未命名的渐变_26-8)" fill-opacity="0.28" fill-rule="nonzero" group-id="1,3,6" node-id="169" stroke="none" target-height="177.47417" target-width="68.23001" target-x="315.25" target-y="26.61792"></path></g><g node-id="272"><path d="M 231.10 55.61 L 171.80 55.61 C 170.31 55.56 169.06 56.71 169.00 58.20 L 169.00 201.44 C 169.08 202.91 170.33 204.05 171.80 204.00 L 231.10 204.00 C 232.59 204.06 233.86 202.90 233.92 201.41 L 233.92 58.20 C 233.86 56.71 232.59 55.55 231.10 55.61 Z M 182.47 159.37 C 182.44 160.01 181.91 160.50 181.27 160.48 L 175.87 160.48 C 175.23 160.50 174.70 160.01 174.67 159.37 L 174.67 154.15 C 174.68 153.84 174.82 153.56 175.04 153.35 C 175.27 153.14 175.56 153.04 175.87 153.05 L 181.27 153.05 C 181.58 153.04 181.87 153.14 182.10 153.35 C 182.32 153.56 182.46 153.84 182.47 154.15 Z M 182.47 146.49 C 182.46 146.80 182.32 147.08 182.10 147.29 C 181.87 147.50 181.58 147.60 181.27 147.59 L 175.87 147.59 C 175.56 147.60 175.27 147.50 175.04 147.29 C 174.82 147.08 174.68 146.80 174.67 146.49 L 174.67 141.27 C 174.70 140.63 175.23 140.14 175.87 140.16 L 181.27 140.16 C 181.91 140.14 182.44 140.63 182.47 141.27 Z M 182.47 133.60 C 182.44 134.24 181.91 134.73 181.27 134.71 L 175.87 134.71 C 175.23 134.73 174.70 134.24 174.67 133.60 L 174.67 128.38 C 174.68 128.07 174.82 127.79 175.04 127.58 C 175.27 127.37 175.56 127.27 175.87 127.28 L 181.27 127.28 C 181.58 127.27 181.87 127.37 182.10 127.58 C 182.32 127.79 182.46 128.07 182.47 128.38 Z M 182.47 120.72 C 182.46 121.03 182.32 121.31 182.10 121.52 C 181.87 121.73 181.58 121.83 181.27 121.82 L 175.87 121.82 C 175.56 121.83 175.27 121.73 175.04 121.52 C 174.82 121.31 174.68 121.03 174.67 120.72 L 174.67 115.50 C 174.70 114.86 175.23 114.37 175.87 114.39 L 181.27 114.39 C 181.91 114.37 182.44 114.86 182.47 115.50 Z M 182.47 107.83 C 182.44 108.47 181.91 108.96 181.27 108.94 L 175.87 108.94 C 175.23 108.96 174.70 108.47 174.67 107.83 L 174.67 102.62 C 174.68 102.31 174.81 102.02 175.04 101.81 C 175.26 101.61 175.56 101.50 175.87 101.51 L 181.27 101.51 C 181.58 101.50 181.88 101.61 182.10 101.81 C 182.33 102.02 182.46 102.31 182.47 102.62 Z M 182.47 94.95 C 182.46 95.26 182.32 95.54 182.10 95.75 C 181.87 95.96 181.58 96.06 181.27 96.05 L 175.87 96.05 C 175.56 96.06 175.27 95.96 175.04 95.75 C 174.82 95.54 174.68 95.26 174.67 94.95 L 174.67 89.73 C 174.70 89.09 175.23 88.60 175.87 88.62 L 181.27 88.62 C 181.91 88.60 182.44 89.09 182.47 89.73 Z M 182.47 82.06 C 182.44 82.70 181.91 83.19 181.27 83.17 L 175.87 83.17 C 175.23 83.19 174.70 82.70 174.67 82.06 L 174.67 76.85 C 174.68 76.54 174.81 76.25 175.04 76.04 C 175.26 75.84 175.56 75.73 175.87 75.74 L 181.27 75.74 C 181.58 75.73 181.88 75.84 182.10 76.04 C 182.33 76.25 182.46 76.54 182.47 76.85 Z M 182.47 69.18 C 182.46 69.49 182.32 69.77 182.10 69.98 C 181.87 70.19 181.58 70.29 181.27 70.28 L 175.87 70.28 C 175.56 70.29 175.27 70.19 175.04 69.98 C 174.82 69.77 174.68 69.49 174.67 69.18 L 174.67 64.00 C 174.70 63.36 175.23 62.87 175.87 62.89 L 181.27 62.89 C 181.91 62.87 182.44 63.36 182.47 64.00 Z M 192.55 159.37 C 192.52 160.01 191.99 160.50 191.35 160.48 L 186.00 160.48 C 185.69 160.49 185.39 160.38 185.16 160.18 C 184.94 159.97 184.80 159.68 184.79 159.37 L 184.79 154.15 C 184.82 153.51 185.36 153.02 186.00 153.05 L 191.40 153.05 C 191.71 153.04 192.00 153.14 192.23 153.35 C 192.45 153.56 192.59 153.84 192.60 154.15 Z M 192.55 146.49 C 192.54 146.80 192.40 147.08 192.18 147.29 C 191.95 147.50 191.66 147.60 191.35 147.59 L 186.00 147.59 C 185.36 147.62 184.82 147.13 184.79 146.49 L 184.79 141.27 C 184.80 140.96 184.94 140.67 185.16 140.46 C 185.39 140.26 185.69 140.15 186.00 140.16 L 191.40 140.16 C 192.04 140.14 192.57 140.63 192.60 141.27 Z M 192.55 133.60 C 192.52 134.24 191.99 134.73 191.35 134.71 L 186.00 134.71 C 185.69 134.72 185.39 134.61 185.16 134.41 C 184.94 134.20 184.80 133.91 184.79 133.60 L 184.79 128.38 C 184.82 127.74 185.36 127.25 186.00 127.28 L 191.40 127.28 C 191.71 127.27 192.00 127.37 192.23 127.58 C 192.45 127.79 192.59 128.07 192.60 128.38 Z M 192.55 120.72 C 192.54 121.03 192.40 121.31 192.18 121.52 C 191.95 121.73 191.66 121.83 191.35 121.82 L 186.00 121.82 C 185.36 121.85 184.82 121.36 184.79 120.72 L 184.79 115.50 C 184.80 115.19 184.94 114.90 185.16 114.69 C 185.39 114.49 185.69 114.38 186.00 114.39 L 191.40 114.39 C 192.04 114.37 192.57 114.86 192.60 115.50 Z M 192.55 107.83 C 192.52 108.47 191.99 108.96 191.35 108.94 L 186.00 108.94 C 185.69 108.95 185.39 108.84 185.16 108.64 C 184.94 108.43 184.80 108.14 184.79 107.83 L 184.79 102.62 C 184.80 102.31 184.94 102.02 185.16 101.81 C 185.39 101.61 185.69 101.50 186.00 101.51 L 191.40 101.51 C 191.71 101.50 192.01 101.61 192.23 101.81 C 192.46 102.02 192.59 102.31 192.60 102.62 Z M 192.55 94.95 C 192.54 95.26 192.40 95.54 192.18 95.75 C 191.95 95.96 191.66 96.06 191.35 96.05 L 186.00 96.05 C 185.36 96.08 184.82 95.59 184.79 94.95 L 184.79 89.73 C 184.80 89.42 184.94 89.13 185.16 88.92 C 185.39 88.72 185.69 88.61 186.00 88.62 L 191.40 88.62 C 192.04 88.60 192.57 89.09 192.60 89.73 Z M 192.55 82.06 C 192.52 82.70 191.99 83.19 191.35 83.17 L 186.00 83.17 C 185.69 83.18 185.39 83.07 185.16 82.87 C 184.94 82.66 184.80 82.37 184.79 82.06 L 184.79 76.85 C 184.80 76.54 184.94 76.25 185.16 76.04 C 185.39 75.84 185.69 75.73 186.00 75.74 L 191.40 75.74 C 191.71 75.73 192.01 75.84 192.23 76.04 C 192.46 76.25 192.59 76.54 192.60 76.85 Z M 192.55 69.18 C 192.54 69.49 192.40 69.77 192.18 69.98 C 191.95 70.19 191.66 70.29 191.35 70.28 L 186.00 70.28 C 185.36 70.31 184.82 69.82 184.79 69.18 L 184.79 64.00 C 184.79 63.69 184.92 63.38 185.15 63.17 C 185.38 62.95 185.69 62.84 186.00 62.85 L 191.40 62.85 C 192.04 62.83 192.57 63.32 192.60 63.96 Z M 202.63 159.37 C 202.62 159.68 202.48 159.97 202.26 160.18 C 202.03 160.38 201.73 160.49 201.42 160.48 L 196.00 160.48 C 195.36 160.50 194.83 160.01 194.80 159.37 L 194.80 154.15 C 194.81 153.84 194.95 153.56 195.17 153.35 C 195.40 153.14 195.69 153.04 196.00 153.05 L 201.40 153.05 C 202.04 153.02 202.58 153.51 202.61 154.15 Z M 202.63 146.49 C 202.60 147.13 202.06 147.62 201.42 147.59 L 196.00 147.59 C 195.69 147.60 195.40 147.50 195.17 147.29 C 194.95 147.08 194.81 146.80 194.80 146.49 L 194.80 141.27 C 194.83 140.63 195.36 140.14 196.00 140.16 L 201.40 140.16 C 201.71 140.15 202.01 140.26 202.24 140.46 C 202.46 140.67 202.60 140.96 202.61 141.27 Z M 202.63 133.60 C 202.62 133.91 202.48 134.20 202.26 134.41 C 202.03 134.61 201.73 134.72 201.42 134.71 L 196.00 134.71 C 195.36 134.73 194.83 134.24 194.80 133.60 L 194.80 128.38 C 194.81 128.07 194.95 127.79 195.17 127.58 C 195.40 127.37 195.69 127.27 196.00 127.28 L 201.40 127.28 C 202.04 127.25 202.58 127.74 202.61 128.38 Z M 202.63 120.72 C 202.60 121.36 202.06 121.85 201.42 121.82 L 196.00 121.82 C 195.69 121.83 195.40 121.73 195.17 121.52 C 194.95 121.31 194.81 121.03 194.80 120.72 L 194.80 115.50 C 194.83 114.86 195.36 114.37 196.00 114.39 L 201.40 114.39 C 201.71 114.38 202.01 114.49 202.24 114.69 C 202.46 114.90 202.60 115.19 202.61 115.50 Z M 202.63 107.83 C 202.62 108.14 202.48 108.43 202.26 108.64 C 202.03 108.84 201.73 108.95 201.42 108.94 L 196.00 108.94 C 195.36 108.96 194.83 108.47 194.80 107.83 L 194.80 102.62 C 194.81 102.31 194.94 102.02 195.17 101.81 C 195.39 101.61 195.69 101.50 196.00 101.51 L 201.40 101.51 C 201.71 101.50 202.01 101.61 202.24 101.81 C 202.46 102.02 202.60 102.31 202.61 102.62 Z M 202.63 94.95 C 202.60 95.59 202.06 96.08 201.42 96.05 L 196.00 96.05 C 195.69 96.06 195.40 95.96 195.17 95.75 C 194.95 95.54 194.81 95.26 194.80 94.95 L 194.80 89.73 C 194.83 89.09 195.36 88.60 196.00 88.62 L 201.40 88.62 C 201.71 88.61 202.01 88.72 202.24 88.92 C 202.46 89.13 202.60 89.42 202.61 89.73 Z M 202.63 82.06 C 202.62 82.37 202.48 82.66 202.26 82.87 C 202.03 83.07 201.73 83.18 201.42 83.17 L 196.00 83.17 C 195.36 83.19 194.83 82.70 194.80 82.06 L 194.80 76.85 C 194.81 76.54 194.94 76.25 195.17 76.04 C 195.39 75.84 195.69 75.73 196.00 75.74 L 201.40 75.74 C 201.71 75.73 202.01 75.84 202.24 76.04 C 202.46 76.25 202.60 76.54 202.61 76.85 Z M 202.63 69.18 C 202.60 69.82 202.06 70.31 201.42 70.28 L 196.00 70.28 C 195.69 70.29 195.40 70.19 195.17 69.98 C 194.95 69.77 194.81 69.49 194.80 69.18 L 194.80 64.00 C 194.83 63.36 195.36 62.87 196.00 62.89 L 201.40 62.89 C 201.71 62.87 202.02 62.98 202.25 63.19 C 202.48 63.40 202.62 63.69 202.63 64.00 Z M 227.84 159.37 C 227.81 160.01 227.28 160.50 226.64 160.48 L 206.10 160.48 C 205.46 160.50 204.93 160.01 204.90 159.37 L 204.90 154.15 C 204.91 153.84 205.05 153.56 205.27 153.35 C 205.50 153.14 205.79 153.04 206.10 153.05 L 226.64 153.05 C 226.95 153.04 227.24 153.14 227.47 153.35 C 227.69 153.56 227.83 153.84 227.84 154.15 Z M 227.84 146.49 C 227.83 146.80 227.69 147.08 227.47 147.29 C 227.24 147.50 226.95 147.60 226.64 147.59 L 206.10 147.59 C 205.79 147.60 205.50 147.50 205.27 147.29 C 205.05 147.08 204.91 146.80 204.90 146.49 L 204.90 141.27 C 204.93 140.63 205.46 140.14 206.10 140.16 L 226.64 140.16 C 227.28 140.14 227.81 140.63 227.84 141.27 Z M 227.84 133.60 C 227.81 134.24 227.28 134.73 226.64 134.71 L 206.10 134.71 C 205.46 134.73 204.93 134.24 204.90 133.60 L 204.90 128.38 C 204.91 128.07 205.05 127.79 205.27 127.58 C 205.50 127.37 205.79 127.27 206.10 127.28 L 226.64 127.28 C 226.95 127.27 227.24 127.37 227.47 127.58 C 227.69 127.79 227.83 128.07 227.84 128.38 Z M 227.84 120.72 C 227.83 121.03 227.69 121.31 227.47 121.52 C 227.24 121.73 226.95 121.83 226.64 121.82 L 206.10 121.82 C 205.79 121.83 205.50 121.73 205.27 121.52 C 205.05 121.31 204.91 121.03 204.90 120.72 L 204.90 115.50 C 204.93 114.86 205.46 114.37 206.10 114.39 L 226.64 114.39 C 227.28 114.37 227.81 114.86 227.84 115.50 Z M 227.84 107.83 C 227.81 108.47 227.28 108.96 226.64 108.94 L 206.10 108.94 C 205.46 108.96 204.93 108.47 204.90 107.83 L 204.90 102.62 C 204.91 102.31 205.04 102.02 205.27 101.81 C 205.49 101.61 205.79 101.50 206.10 101.51 L 226.64 101.51 C 226.95 101.50 227.25 101.61 227.47 101.81 C 227.70 102.02 227.83 102.31 227.84 102.62 Z M 227.84 94.95 C 227.83 95.26 227.69 95.54 227.47 95.75 C 227.24 95.96 226.95 96.06 226.64 96.05 L 206.10 96.05 C 205.79 96.06 205.50 95.96 205.27 95.75 C 205.05 95.54 204.91 95.26 204.90 94.95 L 204.90 89.73 C 204.93 89.09 205.46 88.60 206.10 88.62 L 226.64 88.62 C 227.28 88.60 227.81 89.09 227.84 89.73 Z M 227.84 82.06 C 227.81 82.70 227.28 83.19 226.64 83.17 L 206.10 83.17 C 205.46 83.19 204.93 82.70 204.90 82.06 L 204.90 76.85 C 204.91 76.54 205.04 76.25 205.27 76.04 C 205.49 75.84 205.79 75.73 206.10 75.74 L 226.64 75.74 C 226.95 75.73 227.25 75.84 227.47 76.04 C 227.70 76.25 227.83 76.54 227.84 76.85 Z M 227.84 69.18 C 227.83 69.49 227.69 69.77 227.47 69.98 C 227.24 70.19 226.95 70.29 226.64 70.28 L 206.10 70.28 C 205.79 70.29 205.50 70.19 205.27 69.98 C 205.05 69.77 204.91 69.49 204.90 69.18 L 204.90 64.00 C 204.93 63.36 205.46 62.87 206.10 62.89 L 226.64 62.89 C 227.28 62.87 227.81 63.36 227.84 64.00 Z" fill="url(#未命名的渐变_26-9)" fill-opacity="0.28" fill-rule="nonzero" group-id="1,3,7" node-id="174" stroke="none" target-height="148.51416" target-width="64.92" target-x="169" target-y="55.54792"></path></g><g node-id="273"><path d="M 161.13 26.68 L 84.83 26.68 C 84.11 26.65 83.41 26.90 82.88 27.39 C 82.35 27.87 82.03 28.55 82.00 29.27 L 82.00 201.44 C 82.08 202.93 83.34 204.07 84.83 204.00 L 161.13 204.00 C 162.62 204.06 163.89 202.90 163.95 201.41 L 163.95 29.27 C 163.89 27.78 162.62 26.62 161.13 26.68 Z M 154.34 161.00 C 154.31 161.64 153.78 162.13 153.14 162.11 L 92.83 162.11 C 92.52 162.12 92.22 162.01 91.99 161.81 C 91.77 161.60 91.63 161.31 91.62 161.00 L 91.62 155.79 C 91.63 155.48 91.77 155.19 91.99 154.98 C 92.22 154.78 92.52 154.67 92.83 154.68 L 153.14 154.68 C 153.45 154.67 153.75 154.78 153.97 154.98 C 154.20 155.19 154.33 155.48 154.34 155.79 Z M 154.34 146.33 C 154.33 146.64 154.19 146.92 153.97 147.13 C 153.74 147.34 153.45 147.44 153.14 147.43 L 92.83 147.43 C 92.19 147.46 91.65 146.97 91.62 146.33 L 91.62 141.11 C 91.63 140.80 91.77 140.51 91.99 140.30 C 92.22 140.10 92.52 139.99 92.83 140.00 L 153.14 140.00 C 153.78 139.98 154.31 140.47 154.34 141.11 Z M 154.34 131.65 C 154.31 132.29 153.78 132.78 153.14 132.76 L 92.83 132.76 C 92.52 132.77 92.22 132.66 91.99 132.46 C 91.77 132.25 91.63 131.96 91.62 131.65 L 91.62 126.43 C 91.65 125.79 92.19 125.30 92.83 125.33 L 153.14 125.33 C 153.45 125.32 153.74 125.42 153.97 125.63 C 154.19 125.84 154.33 126.12 154.34 126.43 Z M 154.34 116.97 C 154.31 117.61 153.78 118.10 153.14 118.08 L 92.83 118.08 C 92.52 118.09 92.22 117.98 91.99 117.78 C 91.77 117.57 91.63 117.28 91.62 116.97 L 91.62 111.76 C 91.63 111.45 91.77 111.16 91.99 110.95 C 92.22 110.75 92.52 110.64 92.83 110.65 L 153.14 110.65 C 153.45 110.64 153.75 110.75 153.97 110.95 C 154.20 111.16 154.33 111.45 154.34 111.76 Z M 154.34 102.30 C 154.33 102.61 154.19 102.89 153.97 103.10 C 153.74 103.31 153.45 103.41 153.14 103.40 L 92.83 103.40 C 92.19 103.43 91.65 102.94 91.62 102.30 L 91.62 97.00 C 91.63 96.69 91.77 96.40 91.99 96.19 C 92.22 95.99 92.52 95.88 92.83 95.89 L 153.14 95.89 C 153.78 95.87 154.31 96.36 154.34 97.00 Z M 154.34 87.62 C 154.31 88.26 153.78 88.75 153.14 88.73 L 92.83 88.73 C 92.52 88.74 92.22 88.63 91.99 88.43 C 91.77 88.22 91.63 87.93 91.62 87.62 L 91.62 82.35 C 91.65 81.71 92.19 81.22 92.83 81.25 L 153.14 81.25 C 153.45 81.24 153.74 81.34 153.97 81.55 C 154.19 81.76 154.33 82.04 154.34 82.35 Z M 154.34 72.94 C 154.31 73.58 153.78 74.07 153.14 74.05 L 92.83 74.05 C 92.52 74.06 92.22 73.95 91.99 73.75 C 91.77 73.54 91.63 73.25 91.62 72.94 L 91.62 67.68 C 91.63 67.37 91.77 67.08 91.99 66.87 C 92.22 66.67 92.52 66.56 92.83 66.57 L 153.14 66.57 C 153.45 66.56 153.75 66.67 153.97 66.87 C 154.20 67.08 154.33 67.37 154.34 67.68 Z M 154.34 58.27 C 154.33 58.58 154.19 58.86 153.97 59.07 C 153.74 59.28 153.45 59.38 153.14 59.37 L 92.83 59.37 C 92.19 59.40 91.65 58.91 91.62 58.27 L 91.62 53.00 C 91.63 52.69 91.77 52.40 91.99 52.19 C 92.22 51.99 92.52 51.88 92.83 51.89 L 153.14 51.89 C 153.78 51.87 154.31 52.36 154.34 53.00 Z M 154.34 43.59 C 154.31 44.23 153.78 44.72 153.14 44.70 L 92.83 44.70 C 92.52 44.71 92.22 44.60 91.99 44.40 C 91.77 44.19 91.63 43.90 91.62 43.59 L 91.62 38.32 C 91.65 37.68 92.19 37.19 92.83 37.22 L 153.14 37.22 C 153.45 37.21 153.74 37.31 153.97 37.52 C 154.19 37.73 154.33 38.01 154.34 38.32 Z" fill="url(#未命名的渐变_26-10)" fill-opacity="0.28" fill-rule="nonzero" group-id="1,3,8" node-id="179" stroke="none" target-height="177.45015" target-width="81.95" target-x="82" target-y="26.61792"></path></g><path d="M 306.21 0.00 L 240.82 0.00 C 239.44 0.05 238.36 1.21 238.40 2.59 L 238.40 206.94 C 238.38 207.61 238.62 208.25 239.07 208.74 C 239.52 209.23 240.15 209.52 240.82 209.54 L 306.21 209.54 C 307.59 209.49 308.67 208.32 308.62 206.94 L 308.62 2.59 C 308.67 1.21 307.59 0.05 306.21 0.00 Z M 300.39 134.28 C 300.41 134.86 299.97 135.35 299.39 135.38 L 247.67 135.38 C 247.09 135.35 246.65 134.86 246.67 134.28 L 246.67 129.06 C 246.65 128.48 247.09 127.99 247.67 127.95 L 299.36 127.95 C 299.94 127.99 300.38 128.48 300.36 129.06 Z M 300.39 119.60 C 300.41 120.18 299.97 120.67 299.39 120.71 L 247.67 120.71 C 247.09 120.67 246.65 120.18 246.67 119.60 L 246.67 114.38 C 246.65 113.80 247.09 113.31 247.67 113.28 L 299.36 113.28 C 299.94 113.31 300.38 113.80 300.36 114.38 Z M 300.39 104.92 C 300.41 105.50 299.97 105.99 299.39 106.03 L 247.67 106.03 C 247.09 105.99 246.65 105.50 246.67 104.92 L 246.67 99.71 C 246.65 99.13 247.09 98.64 247.67 98.60 L 299.36 98.60 C 299.94 98.64 300.38 99.13 300.36 99.71 Z M 300.39 90.25 C 300.41 90.83 299.97 91.32 299.39 91.35 L 247.67 91.35 C 247.09 91.32 246.65 90.83 246.67 90.25 L 246.67 85.00 C 246.65 84.42 247.09 83.93 247.67 83.89 L 299.36 83.89 C 299.94 83.93 300.38 84.42 300.36 85.00 Z M 300.39 75.57 C 300.41 76.15 299.97 76.64 299.39 76.68 L 247.67 76.68 C 247.09 76.64 246.65 76.15 246.67 75.57 L 246.67 70.35 C 246.65 69.77 247.09 69.28 247.67 69.25 L 299.36 69.25 C 299.94 69.28 300.38 69.77 300.36 70.35 Z M 300.39 60.89 C 300.41 61.47 299.97 61.96 299.39 62.00 L 247.67 62.00 C 247.09 61.96 246.65 61.47 246.67 60.89 L 246.67 55.68 C 246.65 55.10 247.09 54.61 247.67 54.57 L 299.36 54.57 C 299.94 54.61 300.38 55.10 300.36 55.68 Z M 300.39 46.22 C 300.41 46.80 299.97 47.29 299.39 47.32 L 247.67 47.32 C 247.09 47.29 246.65 46.80 246.67 46.22 L 246.67 41.00 C 246.65 40.42 247.09 39.93 247.67 39.89 L 299.36 39.89 C 299.94 39.93 300.38 40.42 300.36 41.00 Z M 300.39 31.54 C 300.41 32.12 299.97 32.61 299.39 32.65 L 247.67 32.65 C 247.09 32.61 246.65 32.12 246.67 31.54 L 246.67 26.32 C 246.65 25.74 247.09 25.25 247.67 25.22 L 299.36 25.22 C 299.94 25.25 300.38 25.74 300.36 26.32 Z M 300.39 16.86 C 300.41 17.44 299.97 17.93 299.39 17.97 L 247.67 17.97 C 247.09 17.93 246.65 17.44 246.67 16.86 L 246.67 11.65 C 246.65 11.07 247.09 10.58 247.67 10.54 L 299.36 10.54 C 299.94 10.58 300.38 11.07 300.36 11.65 Z" fill="url(#未命名的渐变_26-11)" fill-opacity="0.28" fill-rule="nonzero" group-id="1,3,9" node-id="184" stroke="none" target-height="209.54" target-width="70.31564" target-x="238.35504" target-y="0"></path></g><path d="M 240.54 164.63 C 239.54 169.75 237.91 173.70 235.54 176.45 C 235.27 176.76 234.98 177.05 234.69 177.33 L 234.42 177.57 C 234.23 177.74 234.03 177.90 233.82 178.06 L 233.27 178.46 L 232.67 178.84 L 232.29 179.06 C 232.01 179.21 231.72 179.35 231.42 179.48 L 231.23 179.57 C 230.86 179.72 230.49 179.85 230.10 179.97 L 229.80 180.05 C 229.49 180.14 229.17 180.21 228.80 180.28 L 228.48 180.34 C 228.05 180.42 227.61 180.48 227.16 180.52 L 227.00 180.52 C 226.56 180.52 226.12 180.58 225.67 180.58 C 225.22 180.58 224.77 180.58 224.33 180.52 L 223.62 180.44 L 222.86 180.34 L 222.65 180.34 C 222.26 180.27 221.87 180.18 221.49 180.07 C 221.24 180.00 221.01 179.91 220.77 179.83 L 220.22 179.64 C 219.98 179.54 219.75 179.42 219.52 179.31 L 219.04 179.08 L 218.83 178.95 C 218.55 178.79 218.27 178.62 218.01 178.44 C 217.75 178.26 217.60 178.12 217.40 177.96 C 217.25 177.85 217.11 177.74 216.97 177.62 C 216.76 177.44 216.56 177.23 216.36 177.03 L 215.98 176.65 C 215.71 176.35 215.46 176.03 215.21 175.71 L 215.04 175.49 C 214.80 175.16 214.57 174.82 214.35 174.49 L 214.25 174.32 C 214.04 173.98 213.84 173.64 213.65 173.27 L 213.56 173.09 C 213.36 172.70 213.16 172.30 212.98 171.88 L 212.84 171.56 C 212.67 171.16 212.51 170.75 212.35 170.33 C 212.34 170.28 212.32 170.23 212.30 170.19 C 212.13 169.71 211.97 169.19 211.82 168.71 C 211.77 168.57 211.74 168.43 211.69 168.29 C 211.58 167.89 211.47 167.50 211.37 167.09 C 211.37 166.93 211.29 166.78 211.26 166.62 C 211.13 166.08 211.00 165.52 210.89 164.94 C 210.78 164.36 210.66 163.70 210.55 163.05 C 210.55 163.00 210.55 162.95 210.55 162.90 C 210.45 162.29 210.36 161.65 210.28 161.00 C 210.28 160.84 210.23 160.66 210.21 160.49 C 210.14 159.93 210.08 159.35 210.01 158.76 L 210.01 158.42 C 210.01 158.09 209.95 157.73 209.92 157.42 C 209.87 156.93 209.83 156.42 209.79 155.94 C 209.75 155.46 209.79 155.20 209.72 154.82 C 209.65 154.44 209.65 153.82 209.63 153.32 L 209.57 152.10 C 209.57 151.59 209.57 151.10 209.51 150.55 C 209.45 150.00 209.51 149.69 209.51 149.25 C 209.51 148.81 209.51 148.19 209.51 147.64 C 209.51 146.80 209.51 145.95 209.51 145.07 L 209.51 156.56 C 209.51 157.31 209.51 158.04 209.51 158.77 C 209.51 158.89 209.51 159.01 209.51 159.13 C 209.51 159.67 209.51 160.21 209.51 160.74 L 209.51 162.04 C 209.51 162.57 209.51 163.04 209.57 163.59 L 209.63 164.81 C 209.63 165.32 209.69 165.81 209.72 166.31 C 209.75 166.81 209.72 167.06 209.79 167.43 C 209.86 167.80 209.87 168.43 209.92 168.91 C 209.92 169.21 209.92 169.52 209.99 169.81 C 209.99 169.81 209.99 169.89 209.99 169.94 L 209.99 170.28 C 210.06 170.87 210.12 171.45 210.19 172.01 C 210.19 172.18 210.19 172.35 210.26 172.52 C 210.34 173.17 210.43 173.81 210.53 174.42 C 210.53 174.42 210.53 174.52 210.53 174.56 C 210.60 174.97 210.67 175.38 210.74 175.77 C 210.74 176.00 210.82 176.23 210.87 176.46 C 210.98 177.04 211.11 177.59 211.24 178.14 C 211.24 178.30 211.31 178.45 211.35 178.60 C 211.39 178.75 211.44 178.98 211.49 179.16 L 211.67 179.80 C 211.67 179.95 211.75 180.09 211.80 180.23 C 211.94 180.72 212.10 181.23 212.26 181.65 C 212.26 181.65 212.26 181.65 212.26 181.70 C 212.28 181.75 212.30 181.80 212.31 181.85 C 212.47 182.27 212.63 182.68 212.80 183.08 C 212.80 183.19 212.89 183.29 212.94 183.39 C 212.99 183.49 213.01 183.57 213.05 183.65 C 213.20 183.98 213.36 184.30 213.52 184.65 L 213.61 184.83 C 213.71 185.01 213.80 185.20 213.90 185.37 C 214.00 185.54 214.11 185.71 214.21 185.88 L 214.31 186.05 C 214.49 186.33 214.66 186.60 214.85 186.86 L 215.00 187.06 L 215.17 187.28 C 215.41 187.61 215.67 187.92 215.94 188.22 L 215.99 188.29 L 216.33 188.61 C 216.52 188.81 216.72 189.01 216.93 189.20 C 217.07 189.32 217.21 189.43 217.36 189.54 C 217.56 189.70 217.76 189.87 217.97 190.01 L 218.04 190.07 C 218.28 190.24 218.53 190.38 218.79 190.53 L 219.00 190.65 L 219.00 190.65 C 219.15 190.73 219.31 190.79 219.46 190.86 C 219.69 190.98 219.92 191.09 220.16 191.19 C 220.34 191.27 220.53 191.32 220.71 191.38 C 220.89 191.44 221.18 191.56 221.43 191.63 L 221.43 191.63 C 221.79 191.73 222.17 191.82 222.55 191.89 L 222.76 191.89 L 222.95 191.89 L 223.52 191.96 L 224.23 192.04 L 224.37 192.04 C 224.76 192.04 225.16 192.04 225.57 192.04 L 225.83 192.04 C 226.19 192.04 226.54 192.04 226.90 192.04 L 227.15 192.04 C 227.54 192.04 227.92 191.95 228.28 191.89 L 228.45 191.89 L 228.77 191.83 L 229.29 191.72 C 229.44 191.72 229.58 191.64 229.73 191.60 L 230.03 191.51 L 230.21 191.51 C 230.51 191.42 230.81 191.31 231.10 191.19 L 231.16 191.19 L 231.35 191.10 C 231.56 191.01 231.78 190.92 231.98 190.81 L 232.22 190.67 C 232.35 190.61 232.47 190.53 232.60 190.46 C 232.73 190.39 232.81 190.35 232.91 190.28 L 233.20 190.08 L 233.75 189.68 C 233.83 189.61 233.92 189.56 234.00 189.50 L 234.35 189.19 L 234.62 188.94 C 234.92 188.66 235.20 188.37 235.47 188.07 C 237.85 185.31 239.52 181.37 240.47 176.25 C 241.59 169.56 242.10 162.78 242.00 156.00 L 242.00 144.47 C 242.12 151.22 241.63 157.97 240.54 164.63 Z" fill="#67c8ff" fill-rule="nonzero" group-id="1" node-id="188" stroke="none" target-height="47.569992" target-width="32.66902" target-x="209.45" target-y="144.47"></path><path d="M 260.82 144.09 C 260.82 143.98 260.82 143.87 260.82 143.75 L 260.82 142.32 L 260.82 141.32 C 260.82 140.83 260.82 140.32 260.76 139.86 C 260.76 139.56 260.76 139.25 260.76 138.95 C 260.76 138.40 260.69 137.87 260.66 137.33 C 260.66 137.11 260.66 136.88 260.61 136.65 C 260.56 135.90 260.49 135.16 260.42 134.43 L 260.42 134.43 C 260.36 133.80 260.29 133.17 260.22 132.56 C 260.22 132.37 260.17 132.18 260.15 131.99 L 259.97 130.71 L 259.88 130.05 C 259.82 129.66 259.76 129.27 259.69 128.89 C 259.69 128.68 259.62 128.47 259.58 128.26 C 259.54 128.05 259.58 128.03 259.52 127.91 C 259.46 127.79 259.47 127.65 259.44 127.51 C 259.34 126.96 259.23 126.41 259.11 125.87 C 259.11 125.66 259.02 125.45 258.98 125.24 C 258.81 124.53 258.65 123.84 258.47 123.16 L 258.47 123.16 L 257.96 121.39 L 257.78 120.83 C 257.65 120.45 257.53 120.07 257.40 119.70 C 257.37 119.63 257.35 119.56 257.33 119.49 C 257.27 119.32 257.20 119.16 257.14 118.99 L 256.84 118.20 C 256.74 117.96 256.65 117.73 256.55 117.50 L 256.23 116.75 L 256.12 116.49 C 255.99 116.20 255.85 115.92 255.71 115.64 C 255.37 114.95 255.02 114.29 254.71 113.64 L 254.57 113.39 C 254.57 113.29 254.46 113.20 254.40 113.10 L 253.80 112.10 L 253.45 111.55 C 253.22 111.18 252.97 110.83 252.73 110.47 C 252.66 110.37 252.59 110.25 252.51 110.15 L 252.51 110.09 C 252.15 109.57 251.77 109.09 251.38 108.59 L 251.08 108.22 C 250.78 107.85 250.47 107.50 250.16 107.15 L 249.96 106.91 L 249.79 106.74 C 249.34 106.26 248.89 105.74 248.42 105.34 C 247.95 104.94 247.75 104.72 247.42 104.42 L 247.10 104.15 L 246.35 103.54 L 245.99 103.25 L 245.18 102.65 L 244.89 102.44 L 244.79 102.38 L 244.37 102.10 C 244.10 101.93 243.84 101.75 243.57 101.59 C 243.30 101.43 243.20 101.36 243.01 101.25 L 242.23 100.80 L 242.05 100.70 L 241.75 100.56 C 241.34 100.34 240.92 100.14 240.50 99.94 L 240.01 99.71 C 239.45 99.46 238.88 99.22 238.29 99.00 C 237.70 98.78 237.38 98.68 236.91 98.53 L 236.46 98.39 C 236.21 98.31 235.97 98.23 235.72 98.17 L 235.54 98.17 C 235.06 98.04 234.54 97.91 234.06 97.80 L 233.81 97.74 C 233.23 97.62 232.63 97.51 232.03 97.41 L 231.91 97.41 L 231.33 97.34 L 230.33 97.20 L 229.58 97.13 C 229.26 97.13 228.93 97.06 228.58 97.04 L 228.34 97.04 L 227.54 97.04 L 227.03 97.04 C 226.49 97.04 225.95 97.04 225.40 97.04 L 224.49 97.04 L 223.44 97.04 L 222.96 97.04 C 222.49 97.04 222.02 97.04 221.56 97.13 L 221.49 97.13 L 220.15 97.27 L 219.74 97.33 L 218.83 97.46 L 218.70 97.46 L 218.29 97.54 L 217.59 97.66 L 217.04 97.78 L 216.38 97.92 L 216.18 97.92 L 215.81 98.01 L 215.21 98.17 L 214.65 98.33 L 214.06 98.50 L 213.85 98.57 L 213.52 98.68 L 212.93 98.88 L 212.40 99.08 L 211.82 99.29 C 211.75 99.33 211.67 99.36 211.59 99.38 L 211.32 99.50 L 210.70 99.77 L 210.21 99.99 L 209.61 100.28 L 209.32 100.42 L 209.15 100.51 L 208.38 100.92 L 208.03 101.12 C 207.66 101.33 207.30 101.54 206.94 101.77 L 206.94 101.77 C 206.37 102.13 205.82 102.52 205.27 102.92 L 204.79 103.29 L 204.13 103.79 L 203.66 104.21 L 203.10 104.69 C 202.74 105.02 202.38 105.36 202.03 105.69 L 201.59 106.12 C 201.11 106.63 200.59 107.12 200.19 107.68 L 200.02 107.90 C 199.63 108.38 199.25 108.90 198.89 109.37 C 198.75 109.56 198.62 109.76 198.48 109.96 C 198.20 110.36 197.93 110.77 197.67 111.20 C 197.53 111.42 197.39 111.64 197.26 111.86 C 197.00 112.31 196.75 112.76 196.50 113.22 L 196.17 113.84 C 195.83 114.51 195.50 115.20 195.17 115.91 C 193.46 120.22 192.30 124.74 191.73 129.34 C 190.95 135.16 190.59 141.03 190.63 146.91 L 190.63 158.40 C 190.59 152.52 190.95 146.65 191.73 140.83 C 192.24 136.22 193.34 131.69 195.00 127.35 C 195.31 126.63 195.64 125.95 196.00 125.28 L 196.33 124.65 C 196.58 124.19 196.83 123.74 197.09 123.30 C 197.22 123.08 197.36 122.86 197.50 122.64 C 197.76 122.21 198.03 121.80 198.31 121.39 L 198.72 120.81 C 199.08 120.30 199.46 119.81 199.85 119.34 L 200.02 119.12 C 200.47 118.58 200.94 118.06 201.42 117.56 C 201.56 117.41 201.71 117.27 201.86 117.13 C 202.21 116.78 202.57 116.44 202.93 116.13 L 203.49 115.64 L 204.62 114.72 L 205.10 114.36 C 205.66 113.95 206.22 113.56 206.81 113.19 C 207.17 112.96 207.53 112.74 207.90 112.53 L 208.25 112.34 L 209.02 111.93 C 209.17 111.85 209.32 111.77 209.48 111.70 L 210.08 111.41 L 210.57 111.19 C 210.77 111.09 210.98 111.01 211.19 110.92 L 211.69 110.71 L 212.27 110.49 L 212.80 110.30 L 213.39 110.10 L 213.93 109.92 L 214.52 109.75 L 215.08 109.59 L 215.68 109.43 L 216.25 109.29 L 216.91 109.15 L 217.47 109.03 L 218.15 108.90 L 218.70 108.81 L 219.60 108.68 L 220.02 108.62 L 221.36 108.48 L 221.43 108.48 L 222.83 108.38 L 223.31 108.38 L 224.36 108.38 L 225.27 108.38 C 225.82 108.38 226.36 108.38 226.90 108.38 L 227.41 108.38 L 228.41 108.44 L 229.41 108.53 L 230.16 108.61 L 231.16 108.74 L 231.86 108.84 C 232.46 108.94 233.06 109.05 233.64 109.18 L 233.89 109.24 C 234.39 109.35 234.89 109.47 235.37 109.61 L 236.29 109.87 L 236.74 110.01 C 237.21 110.16 237.67 110.32 238.12 110.49 C 238.71 110.71 239.28 110.95 239.84 111.20 L 240.33 111.43 C 240.75 111.62 241.17 111.83 241.58 112.04 L 242.06 112.29 L 242.84 112.74 L 243.40 113.07 L 244.20 113.59 L 244.72 113.93 L 245.01 114.14 L 245.82 114.74 L 246.18 115.02 L 246.93 115.63 L 247.25 115.91 C 247.59 116.20 247.93 116.51 248.25 116.82 C 248.57 117.13 249.17 117.74 249.62 118.23 L 249.99 118.63 C 250.30 118.98 250.61 119.34 250.91 119.70 L 251.21 120.07 C 251.60 120.56 251.98 121.07 252.34 121.57 L 252.61 121.96 C 252.85 122.31 253.10 122.67 253.33 123.04 L 253.68 123.59 L 254.28 124.59 C 254.38 124.77 254.48 124.95 254.59 125.13 C 254.95 125.78 255.30 126.44 255.59 127.13 C 255.77 127.49 255.94 127.87 256.11 128.24 C 256.28 128.61 256.32 128.75 256.43 129.00 L 256.72 129.69 L 257.02 130.49 C 257.11 130.72 257.19 130.96 257.28 131.20 C 257.37 131.44 257.53 131.95 257.66 132.33 L 257.84 132.89 C 258.01 133.46 258.18 134.05 258.34 134.65 L 258.34 134.65 C 258.52 135.32 258.68 136.02 258.85 136.73 C 258.85 136.94 258.94 137.15 258.98 137.36 C 259.10 137.90 259.21 138.44 259.31 139.00 C 259.36 139.25 259.41 139.49 259.45 139.75 C 259.49 140.01 259.53 140.17 259.56 140.38 C 259.63 140.76 259.69 141.15 259.75 141.54 L 259.84 142.19 L 260.02 143.48 C 260.02 143.67 260.02 143.86 260.09 144.05 C 260.16 144.67 260.23 145.30 260.29 145.94 C 260.35 146.58 260.43 147.41 260.48 148.16 C 260.48 148.38 260.48 148.61 260.53 148.84 C 260.53 149.37 260.60 149.91 260.63 150.46 C 260.63 150.76 260.63 151.06 260.63 151.37 C 260.63 151.85 260.68 152.37 260.69 152.83 L 260.69 153.83 L 260.69 155.26 C 260.69 155.92 260.69 156.59 260.69 157.26 L 260.69 157.26 L 260.69 145.77 C 260.83 145.20 260.82 144.65 260.82 144.09 Z" fill="#67c8ff" fill-rule="nonzero" group-id="1" node-id="190" stroke="none" target-height="61.359993" target-width="70.2437" target-x="190.58629" target-y="97.04"></path><path d="M 255.60 127.08 C 259.09 134.19 260.83 144.25 260.83 157.26 C 260.91 163.36 260.44 169.45 259.45 175.47 C 258.61 180.35 256.88 185.04 254.36 189.30 C 251.43 194.21 247.26 198.26 242.27 201.05 C 237.22 203.83 231.54 205.26 225.77 205.19 C 219.09 205.28 212.55 203.34 207.00 199.63 C 201.42 195.85 197.07 190.50 194.52 184.26 C 193.04 180.44 191.99 176.46 191.40 172.40 C 190.71 167.75 190.37 163.05 190.40 158.35 C 190.36 152.47 190.72 146.60 191.50 140.78 C 192.09 136.17 193.27 131.66 195.00 127.35 C 197.38 121.52 201.50 116.57 206.79 113.17 C 211.94 109.92 218.10 108.30 225.25 108.29 C 229.63 108.23 233.98 108.96 238.10 110.45 C 241.88 111.85 245.33 114.00 248.24 116.78 C 251.28 119.76 253.77 123.24 255.60 127.08 Z M 240.54 176.08 C 241.63 169.44 242.11 162.72 242.00 156.00 C 242.12 149.52 241.61 143.04 240.49 136.66 C 239.48 131.64 237.79 127.85 235.40 125.28 C 233.01 122.72 229.72 121.44 225.50 121.44 C 219.45 121.44 215.24 124.30 212.89 130.03 C 210.54 135.76 209.36 144.59 209.35 156.52 C 209.23 163.19 209.74 169.85 210.86 176.42 C 211.87 181.58 213.57 185.49 215.95 188.14 C 218.43 190.84 221.98 192.31 225.64 192.14 C 229.85 192.14 233.15 190.76 235.54 188.01 C 237.93 185.26 239.60 181.32 240.54 176.19" fill="#8cd7ff" fill-rule="nonzero" group-id="1" node-id="192" stroke="none" target-height="97.04948" target-width="70.54988" target-x="190.35628" target-y="108.232765"></path><path d="M 323.79 164.63 C 322.79 169.75 321.16 173.70 318.79 176.45 C 318.52 176.76 318.23 177.05 317.94 177.33 L 317.67 177.57 C 317.48 177.74 317.28 177.90 317.07 178.06 L 316.52 178.46 L 315.92 178.84 L 315.54 179.06 C 315.26 179.21 314.97 179.35 314.67 179.48 L 314.48 179.57 C 314.11 179.72 313.74 179.85 313.35 179.97 L 313.05 180.05 C 312.74 180.14 312.42 180.21 312.05 180.28 L 311.73 180.34 C 311.30 180.42 310.86 180.48 310.41 180.52 L 310.18 180.52 C 309.74 180.52 309.30 180.58 308.85 180.58 C 308.40 180.58 307.95 180.58 307.51 180.52 L 306.80 180.44 L 306.04 180.34 L 305.83 180.34 C 305.44 180.27 305.05 180.18 304.67 180.07 C 304.42 180.00 304.19 179.91 303.95 179.83 L 303.40 179.64 C 303.16 179.54 302.93 179.42 302.70 179.31 L 302.22 179.08 L 302.01 178.95 C 301.73 178.79 301.45 178.62 301.19 178.44 C 300.93 178.26 300.78 178.12 300.58 177.96 C 300.43 177.85 300.29 177.74 300.15 177.62 C 299.94 177.44 299.74 177.23 299.54 177.03 L 299.16 176.65 C 298.89 176.35 298.64 176.03 298.39 175.71 L 298.22 175.49 C 297.98 175.16 297.75 174.82 297.53 174.49 L 297.43 174.32 C 297.22 173.98 297.02 173.64 296.83 173.27 L 296.74 173.09 C 296.54 172.70 296.34 172.30 296.16 171.88 L 296.02 171.56 C 295.85 171.16 295.69 170.75 295.54 170.33 L 295.48 170.19 C 295.31 169.71 295.15 169.19 295.00 168.71 C 295.00 168.57 294.92 168.43 294.87 168.29 C 294.76 167.89 294.65 167.50 294.55 167.09 C 294.55 166.93 294.47 166.78 294.44 166.62 C 294.31 166.08 294.18 165.52 294.07 164.94 C 293.96 164.36 293.84 163.70 293.73 163.05 C 293.73 163.00 293.73 162.95 293.73 162.90 C 293.63 162.29 293.54 161.65 293.46 161.00 C 293.46 160.84 293.41 160.66 293.39 160.49 C 293.32 159.93 293.26 159.35 293.20 158.76 C 293.20 158.65 293.20 158.53 293.20 158.42 C 293.20 158.09 293.14 157.73 293.11 157.42 C 293.06 156.93 293.02 156.42 292.98 155.94 C 292.94 155.46 292.93 155.20 292.91 154.82 C 292.89 154.44 292.84 153.82 292.82 153.32 L 292.76 152.10 C 292.76 151.59 292.76 151.10 292.70 150.55 C 292.64 150.00 292.70 149.69 292.70 149.25 C 292.70 148.81 292.70 148.19 292.70 147.64 C 292.70 146.80 292.70 145.95 292.70 145.07 L 292.70 156.56 C 292.70 157.31 292.70 158.04 292.70 158.77 C 292.70 158.89 292.70 159.01 292.70 159.13 C 292.70 159.67 292.70 160.21 292.70 160.74 L 292.70 162.04 C 292.70 162.57 292.70 163.04 292.76 163.59 L 292.82 164.81 C 292.82 165.32 292.88 165.81 292.91 166.31 C 292.94 166.81 292.96 167.06 292.98 167.43 C 293.00 167.80 293.06 168.43 293.11 168.91 C 293.11 169.21 293.16 169.52 293.18 169.81 C 293.18 169.81 293.18 169.89 293.18 169.94 C 293.18 169.99 293.18 170.16 293.18 170.28 C 293.24 170.87 293.30 171.45 293.37 172.01 C 293.37 172.18 293.37 172.35 293.44 172.52 C 293.52 173.17 293.61 173.81 293.71 174.42 C 293.71 174.47 293.71 174.51 293.71 174.56 C 293.78 174.97 293.85 175.38 293.92 175.77 C 293.92 176.00 294.00 176.23 294.05 176.46 C 294.16 177.04 294.29 177.59 294.42 178.14 C 294.42 178.30 294.49 178.45 294.53 178.60 C 294.57 178.75 294.62 178.98 294.67 179.16 L 294.85 179.80 C 294.90 179.95 294.94 180.09 294.98 180.23 C 295.13 180.72 295.28 181.23 295.44 181.65 L 295.44 181.70 L 295.50 181.85 C 295.65 182.27 295.81 182.68 295.98 183.08 C 296.03 183.19 296.07 183.29 296.12 183.39 C 296.17 183.49 296.19 183.57 296.23 183.65 C 296.38 183.98 296.54 184.30 296.70 184.65 L 296.79 184.83 C 296.89 185.01 296.99 185.20 297.09 185.37 C 297.19 185.54 297.29 185.71 297.39 185.88 L 297.49 186.05 L 298.03 186.86 L 298.18 187.06 L 298.35 187.28 C 298.59 187.61 298.85 187.92 299.12 188.22 L 299.18 188.29 C 299.28 188.40 299.40 188.50 299.51 188.61 C 299.62 188.72 299.90 189.01 300.11 189.20 L 300.54 189.54 C 300.74 189.70 300.94 189.87 301.15 190.01 L 301.22 190.07 C 301.46 190.24 301.72 190.38 301.97 190.53 L 302.18 190.65 L 302.18 190.65 C 302.33 190.73 302.49 190.79 302.64 190.86 C 302.87 190.98 303.10 191.09 303.34 191.19 C 303.52 191.27 303.71 191.32 303.89 191.38 C 304.07 191.44 304.36 191.56 304.61 191.63 L 304.61 191.63 C 304.98 191.73 305.35 191.82 305.73 191.89 L 305.94 191.89 L 306.13 191.89 L 306.70 191.96 L 307.41 192.04 L 307.55 192.04 C 307.94 192.04 308.34 192.04 308.75 192.04 L 309.01 192.04 C 309.37 192.04 309.73 192.04 310.08 192.04 L 310.33 192.04 C 310.72 192.04 311.10 191.95 311.46 191.89 L 311.63 191.89 L 311.95 191.83 L 312.47 191.72 C 312.62 191.72 312.77 191.64 312.91 191.60 L 313.21 191.51 L 313.39 191.51 C 313.69 191.42 313.99 191.31 314.28 191.19 L 314.34 191.19 L 314.53 191.10 C 314.74 191.01 314.96 190.92 315.16 190.81 L 315.40 190.67 C 315.53 190.61 315.65 190.53 315.78 190.46 C 315.91 190.39 315.99 190.35 316.09 190.28 L 316.38 190.08 L 316.93 189.68 C 317.01 189.61 317.10 189.56 317.18 189.50 L 317.53 189.19 L 317.80 188.94 C 318.10 188.66 318.38 188.37 318.65 188.07 C 321.03 185.31 322.70 181.37 323.65 176.25 C 324.79 169.56 325.32 162.78 325.24 156.00 L 325.24 144.47 C 325.36 151.22 324.88 157.97 323.79 164.63 Z" fill="#67c8ff" fill-rule="nonzero" group-id="1" node-id="194" stroke="none" target-height="47.569992" target-width="32.72229" target-x="292.64" target-y="144.47"></path><path d="M 344.07 144.09 C 344.07 143.98 344.07 143.87 344.07 143.75 L 344.07 142.32 L 344.07 141.32 C 344.07 140.83 344.07 140.32 344.01 139.86 C 344.01 139.56 344.01 139.25 344.01 138.95 C 344.01 138.40 343.95 137.87 343.91 137.33 C 343.91 137.11 343.91 136.88 343.86 136.65 C 343.81 135.90 343.75 135.16 343.67 134.43 L 343.67 134.43 C 343.61 133.80 343.54 133.17 343.47 132.56 C 343.47 132.37 343.42 132.18 343.40 131.99 L 343.22 130.71 L 343.00 130.00 C 342.94 129.61 342.88 129.22 342.81 128.84 C 342.81 128.63 342.74 128.42 342.70 128.21 C 342.66 128.00 342.70 127.98 342.65 127.86 L 342.56 127.46 C 342.46 126.91 342.35 126.36 342.23 125.82 C 342.23 125.61 342.14 125.40 342.10 125.19 C 341.94 124.48 341.77 123.79 341.59 123.11 L 341.59 123.11 C 341.43 122.51 341.25 121.92 341.08 121.34 L 340.90 120.78 C 340.77 120.40 340.65 120.02 340.52 119.65 C 340.49 119.58 340.47 119.51 340.45 119.44 C 340.39 119.27 340.32 119.11 340.26 118.94 L 339.96 118.15 C 339.86 117.91 339.77 117.68 339.67 117.45 C 339.57 117.22 339.46 116.95 339.35 116.70 L 339.24 116.44 C 339.11 116.15 338.97 115.87 338.83 115.59 C 338.49 114.90 338.14 114.24 337.78 113.59 L 337.64 113.34 C 337.59 113.24 337.53 113.15 337.47 113.05 L 336.87 112.05 L 336.52 111.50 C 336.29 111.13 336.05 110.78 335.80 110.42 C 335.73 110.32 335.66 110.20 335.58 110.10 L 335.53 110.04 C 335.17 109.52 334.79 109.04 334.40 108.54 L 334.10 108.17 C 333.80 107.80 333.49 107.45 333.18 107.10 L 332.98 106.86 L 332.81 106.69 C 332.36 106.21 331.91 105.69 331.44 105.29 C 330.97 104.89 330.77 104.67 330.44 104.37 L 330.12 104.10 L 329.37 103.49 L 329.01 103.20 L 328.20 102.60 L 327.91 102.39 L 327.81 102.33 L 327.39 102.05 C 327.12 101.88 326.86 101.70 326.59 101.54 C 326.32 101.38 326.22 101.31 326.03 101.20 L 325.25 100.75 L 325.07 100.65 L 324.77 100.51 C 324.36 100.29 323.95 100.09 323.52 99.89 L 323.03 99.66 C 322.47 99.41 321.90 99.17 321.31 98.95 C 320.72 98.73 320.40 98.63 319.94 98.48 L 319.48 98.34 C 319.23 98.26 318.99 98.18 318.74 98.12 L 318.57 98.12 C 318.08 97.99 317.57 97.86 317.08 97.75 L 316.83 97.69 C 316.25 97.57 315.65 97.46 315.05 97.36 L 314.93 97.36 L 314.36 97.29 L 313.36 97.15 L 312.61 97.08 C 312.29 97.08 311.96 97.01 311.61 96.99 L 311.37 96.99 L 310.57 96.99 L 310.06 96.99 C 309.52 96.99 308.98 96.99 308.43 96.99 L 307.52 96.99 L 306.47 96.99 L 305.99 96.99 C 305.52 96.99 305.05 96.99 304.59 97.08 L 304.52 97.08 L 303.18 97.22 L 302.77 97.28 L 301.86 97.41 L 301.73 97.41 L 301.32 97.49 L 300.63 97.61 L 300.07 97.73 L 299.41 97.87 L 299.21 97.87 L 298.84 97.96 L 298.24 98.12 L 297.68 98.28 L 297.09 98.45 L 296.88 98.52 L 296.55 98.63 L 295.96 98.83 L 295.43 99.03 L 294.85 99.24 C 294.78 99.28 294.70 99.31 294.62 99.33 L 294.35 99.45 L 293.73 99.72 L 293.24 99.94 L 292.64 100.23 L 292.35 100.37 L 292.18 100.46 L 291.41 100.87 L 291.06 101.07 C 290.69 101.28 290.33 101.49 289.97 101.72 L 289.97 101.72 C 289.39 102.08 288.84 102.47 288.29 102.87 C 288.13 102.99 287.97 103.11 287.82 103.24 C 287.67 103.37 287.37 103.57 287.16 103.74 L 286.68 104.16 C 286.49 104.32 286.31 104.47 286.13 104.64 C 285.76 104.97 285.40 105.31 285.05 105.64 L 284.61 106.07 C 284.13 106.58 283.66 107.07 283.21 107.63 L 283.04 107.85 C 282.65 108.33 282.27 108.85 281.91 109.32 C 281.77 109.51 281.64 109.71 281.50 109.91 C 281.22 110.31 280.95 110.72 280.69 111.15 C 280.55 111.37 280.41 111.59 280.28 111.81 C 280.02 112.26 279.77 112.71 279.52 113.17 L 279.19 113.79 C 278.85 114.46 278.52 115.15 278.19 115.86 C 276.48 120.17 275.32 124.69 274.75 129.29 C 273.97 135.11 273.61 140.98 273.65 146.86 L 273.65 158.35 C 273.61 152.47 273.97 146.60 274.75 140.78 C 275.32 136.18 276.48 131.66 278.19 127.35 C 278.50 126.63 278.83 125.95 279.19 125.28 L 279.52 124.65 C 279.77 124.19 280.02 123.74 280.28 123.30 C 280.41 123.08 280.55 122.86 280.69 122.64 C 280.95 122.21 281.22 121.80 281.50 121.39 L 281.91 120.81 C 282.27 120.30 282.65 119.81 283.04 119.34 L 283.21 119.12 C 283.66 118.58 284.13 118.06 284.61 117.56 C 284.75 117.41 284.90 117.27 285.05 117.13 C 285.40 116.78 285.76 116.45 286.13 116.13 L 286.68 115.64 C 287.05 115.33 287.43 115.02 287.82 114.72 L 288.29 114.36 C 288.85 113.95 289.41 113.56 290.00 113.19 C 290.36 112.96 290.72 112.74 291.09 112.53 L 291.44 112.34 L 292.21 111.93 C 292.36 111.85 292.51 111.77 292.67 111.70 L 293.27 111.41 L 293.76 111.19 C 293.96 111.09 294.17 111.01 294.38 110.92 L 294.88 110.71 L 295.46 110.49 L 295.99 110.30 L 296.58 110.10 L 297.12 109.92 L 297.71 109.75 L 298.27 109.59 L 298.87 109.43 L 299.44 109.29 L 300.10 109.15 L 300.66 109.03 L 301.34 108.90 L 301.89 108.81 L 302.79 108.68 L 303.21 108.62 L 304.55 108.48 L 304.62 108.48 L 306.02 108.38 L 306.50 108.38 L 307.55 108.38 L 308.46 108.38 C 309.01 108.38 309.55 108.38 310.09 108.38 L 310.60 108.38 L 311.60 108.44 L 312.60 108.53 L 313.35 108.61 L 314.35 108.74 L 315.04 108.84 C 315.64 108.94 316.24 109.05 316.82 109.18 L 317.07 109.24 C 317.57 109.35 318.07 109.47 318.56 109.61 L 319.47 109.87 L 319.93 110.01 C 320.39 110.16 320.85 110.32 321.30 110.49 C 321.75 110.66 322.46 110.95 323.02 111.20 L 323.51 111.43 C 323.94 111.62 324.35 111.83 324.76 112.04 L 325.24 112.29 L 326.02 112.74 L 326.58 113.07 L 327.38 113.59 L 327.90 113.93 L 328.19 114.14 L 329.00 114.74 L 329.36 115.02 L 330.11 115.63 L 330.43 115.91 C 330.77 116.20 331.11 116.51 331.43 116.82 C 331.75 117.13 332.35 117.74 332.80 118.23 C 332.93 118.36 333.05 118.50 333.17 118.63 C 333.48 118.98 333.79 119.34 334.09 119.70 L 334.39 120.07 C 334.78 120.56 335.16 121.07 335.52 121.57 L 335.79 121.96 C 336.04 122.31 336.28 122.67 336.51 123.04 L 336.86 123.59 L 337.46 124.59 C 337.56 124.77 337.66 124.95 337.77 125.13 C 338.13 125.78 338.48 126.44 338.82 127.13 C 339.00 127.49 339.17 127.87 339.34 128.24 C 339.51 128.61 339.56 128.75 339.66 129.00 L 339.95 129.69 L 340.25 130.49 C 340.34 130.72 340.42 130.96 340.51 131.20 C 340.60 131.44 340.76 131.95 340.89 132.33 L 341.07 132.89 C 341.24 133.46 341.41 134.05 341.58 134.65 L 341.58 134.65 C 341.76 135.32 341.93 136.02 342.09 136.73 C 342.09 136.94 342.18 137.15 342.22 137.36 C 342.34 137.90 342.45 138.44 342.55 139.00 C 342.60 139.25 342.65 139.49 342.69 139.75 C 342.73 140.01 342.77 140.17 342.80 140.38 C 342.87 140.76 342.93 141.15 342.99 141.54 L 343.08 142.19 L 343.26 143.48 C 343.26 143.67 343.26 143.86 343.33 144.05 C 343.40 144.67 343.47 145.30 343.53 145.94 C 343.59 146.58 343.67 147.41 343.72 148.16 C 343.72 148.38 343.72 148.61 343.77 148.84 C 343.77 149.37 343.84 149.91 343.87 150.46 C 343.87 150.76 343.87 151.06 343.87 151.37 C 343.87 151.85 343.92 152.37 343.93 152.83 L 343.93 153.83 L 343.93 155.26 C 343.93 155.92 343.93 156.59 343.93 157.26 L 343.93 157.26 L 343.93 145.77 C 344.08 145.20 344.07 144.65 344.07 144.09 Z" fill="#67c8ff" fill-rule="nonzero" group-id="1" node-id="196" stroke="none" target-height="61.36001" target-width="70.473694" target-x="273.6063" target-y="96.99"></path><path d="M 338.85 127.08 C 342.34 134.19 344.08 144.25 344.08 157.26 C 344.16 163.36 343.69 169.45 342.70 175.47 C 341.86 180.35 340.14 185.04 337.61 189.30 C 334.68 194.21 330.51 198.26 325.52 201.05 C 320.47 203.83 314.79 205.26 309.02 205.19 C 302.35 205.28 295.82 203.34 290.28 199.63 C 284.70 195.85 280.36 190.50 277.81 184.26 C 276.32 180.44 275.27 176.46 274.68 172.40 C 273.99 167.75 273.65 163.05 273.68 158.35 C 273.64 152.47 274.00 146.60 274.78 140.78 C 275.35 136.18 276.51 131.66 278.22 127.35 C 280.60 121.53 284.71 116.58 290.00 113.17 C 295.15 109.92 301.31 108.30 308.46 108.29 C 312.84 108.23 317.19 108.96 321.31 110.45 C 325.09 111.85 328.54 114.00 331.45 116.78 C 334.50 119.75 337.01 123.24 338.85 127.08 Z M 323.79 176.08 C 324.87 169.44 325.36 162.72 325.24 156.00 C 325.36 149.52 324.85 143.04 323.73 136.66 C 322.72 131.64 321.03 127.85 318.64 125.28 C 316.25 122.71 312.95 121.43 308.74 121.44 C 302.69 121.44 298.48 124.30 296.13 130.03 C 293.78 135.76 292.60 144.59 292.59 156.52 C 292.47 163.19 292.98 169.85 294.10 176.42 C 295.11 181.58 296.80 185.49 299.19 188.14 C 301.67 190.84 305.22 192.31 308.88 192.14 C 313.09 192.14 316.39 190.76 318.78 188.01 C 321.17 185.26 322.84 181.32 323.78 176.19" fill="#8cd7ff" fill-rule="nonzero" group-id="1" node-id="198" stroke="none" target-height="97.04339" target-width="70.51987" target-x="273.6363" target-y="108.232765"></path><path d="M 148.00 177.15 C 147.63 177.47 147.23 177.77 146.82 178.06 L 146.44 178.31 C 146.13 178.51 145.80 178.71 145.44 178.90 L 145.09 179.09 C 144.64 179.33 144.18 179.55 143.70 179.75 L 143.56 179.81 C 143.12 179.99 142.66 180.15 142.19 180.30 L 141.86 180.41 C 141.35 180.56 140.86 180.70 140.30 180.82 L 139.99 180.88 C 139.53 180.98 139.05 181.06 138.56 181.13 L 138.12 181.20 C 137.55 181.27 136.95 181.33 136.34 181.37 C 135.73 181.41 134.86 181.45 134.09 181.45 L 132.59 181.45 C 131.88 181.45 131.18 181.37 130.49 181.32 L 130.02 181.32 C 129.35 181.25 128.69 181.17 128.02 181.08 L 127.76 181.03 C 126.99 180.92 126.21 180.78 125.45 180.62 L 125.31 180.62 C 124.54 180.46 123.77 180.27 123.01 180.06 L 122.38 179.89 L 122.29 179.89 C 121.94 179.79 121.59 179.72 121.23 179.67 L 121.10 179.67 C 120.84 179.63 120.57 179.60 120.31 179.60 L 120.00 179.60 L 119.42 179.60 L 119.31 179.60 L 118.83 179.66 L 118.57 179.66 L 118.49 179.66 L 117.90 179.80 L 117.71 179.80 L 117.71 179.80 C 117.42 179.88 117.14 179.98 116.87 180.09 L 116.82 180.09 L 116.71 180.15 C 116.43 180.27 116.15 180.41 115.89 180.57 L 115.76 180.63 L 115.68 180.69 C 115.43 180.84 115.19 181.01 114.96 181.19 L 114.96 181.19 C 114.73 181.37 114.51 181.58 114.29 181.79 L 114.11 181.98 C 113.96 182.14 113.82 182.30 113.68 182.47 L 113.50 182.70 C 113.36 182.89 113.23 183.08 113.11 183.27 C 113.07 183.33 113.03 183.39 113.00 183.46 C 112.85 183.72 112.71 183.99 112.59 184.27 C 112.59 184.33 112.59 184.40 112.51 184.47 C 112.43 184.69 112.35 184.91 112.28 185.14 C 112.21 185.37 112.23 185.34 112.20 185.44 C 112.17 185.54 112.10 185.88 112.07 186.10 C 112.07 186.20 112.07 186.29 112.07 186.39 C 112.03 186.72 112.01 187.06 112.01 187.39 L 112.01 196.00 C 112.01 195.67 112.03 195.33 112.07 195.00 C 112.06 194.90 112.06 194.81 112.07 194.71 C 112.10 194.49 112.15 194.27 112.20 194.05 C 112.20 193.95 112.20 193.85 112.28 193.75 C 112.36 193.65 112.43 193.29 112.51 193.07 C 112.51 193.01 112.56 192.94 112.59 192.88 C 112.71 192.60 112.85 192.33 113.00 192.06 C 113.03 192.00 113.07 191.94 113.11 191.88 C 113.23 191.68 113.36 191.49 113.50 191.31 L 113.68 191.07 C 113.82 190.91 113.96 190.74 114.11 190.59 L 114.29 190.39 C 114.51 190.18 114.73 189.98 114.96 189.80 L 114.96 189.80 C 115.19 189.62 115.43 189.46 115.68 189.30 L 115.89 189.19 C 116.15 189.03 116.43 188.89 116.71 188.77 L 116.87 188.69 C 117.14 188.58 117.42 188.48 117.71 188.39 L 117.93 188.34 L 118.53 188.20 L 118.86 188.15 C 119.02 188.15 119.18 188.10 119.34 188.09 L 120.03 188.09 C 120.39 188.09 120.74 188.12 121.10 188.16 L 121.21 188.16 C 121.60 188.22 122.00 188.30 122.38 188.41 L 122.79 188.53 L 123.01 188.59 C 123.77 188.79 124.54 188.99 125.31 189.15 L 125.45 189.15 C 126.21 189.31 126.99 189.44 127.76 189.56 L 127.94 189.56 L 128.00 189.56 C 128.67 189.66 129.33 189.74 130.00 189.80 L 130.47 189.80 C 131.16 189.86 131.86 189.91 132.57 189.93 L 132.57 189.93 C 133.07 189.93 133.57 189.93 134.07 189.93 C 134.84 189.93 135.59 189.93 136.32 189.85 L 136.42 189.85 C 136.99 189.81 137.55 189.75 138.10 189.67 L 138.54 189.61 L 139.24 189.51 L 139.97 189.36 L 140.28 189.30 C 140.73 189.20 141.17 189.09 141.60 188.96 L 141.84 188.89 L 142.17 188.78 C 142.64 188.63 143.10 188.47 143.54 188.28 L 143.68 188.23 L 143.74 188.23 C 144.20 188.03 144.64 187.82 145.07 187.59 L 145.42 187.40 L 145.90 187.13 L 146.39 186.80 L 146.77 186.55 C 147.18 186.27 147.58 185.97 147.95 185.64 C 150.89 183.18 152.69 179.62 152.95 175.80 C 152.95 175.22 153.03 174.62 153.03 174.01 L 153.03 174.01 L 153.03 165.38 C 153.26 169.87 151.41 174.22 148.00 177.15 Z" fill="#67c8ff" fill-rule="nonzero" group-id="1" node-id="200" stroke="none" target-height="30.619995" target-width="41.256332" target-x="112.00847" target-y="165.38"></path><g clip-path="url(#clip-path)" group-id="1,4" node-id="206"><path d="M 172.52 158.33 C 172.40 157.21 172.23 156.10 172.00 155.00 C 171.78 154.06 171.50 153.13 171.18 152.22 C 170.85 151.30 170.47 150.40 170.02 149.53 C 169.45 148.39 168.78 147.31 168.02 146.29 C 167.12 145.12 166.11 144.03 165.02 143.04 C 162.83 141.06 160.36 139.43 157.68 138.19 C 155.64 137.23 153.53 136.45 151.36 135.84 C 149.69 135.38 147.99 135.02 146.28 134.76 C 145.07 134.59 143.88 134.47 142.72 134.41 L 141.19 134.35 C 140.19 134.35 139.14 134.35 138.07 134.35 C 136.57 134.35 135.01 134.35 133.39 134.50 L 132.75 134.55 L 132.75 143.19 L 133.39 143.19 C 135.00 143.00 136.53 143.00 138.00 143.00 C 139.07 143.00 140.11 143.02 141.12 143.06 L 142.65 143.12 C 143.81 143.18 145.00 143.29 146.21 143.47 C 147.92 143.73 149.62 144.09 151.29 144.55 C 153.46 145.15 155.57 145.94 157.61 146.90 C 160.29 148.14 162.76 149.77 164.95 151.75 C 166.04 152.74 167.05 153.83 167.95 155.00 C 168.71 156.02 169.38 157.10 169.95 158.23 C 170.40 159.10 170.78 160.01 171.11 160.93 C 171.43 161.84 171.71 162.77 171.93 163.71 C 172.18 164.80 172.37 165.90 172.50 167.01 C 172.68 168.52 172.78 170.04 172.80 171.56 L 172.80 162.92 C 172.79 161.39 172.69 159.85 172.52 158.33 Z" fill="#67c8ff" fill-rule="nonzero" group-id="1,4,10,11" node-id="208" stroke="none" target-height="37.20999" target-width="40.050003" target-x="132.75" target-y="134.35"></path><path d="M 172.82 171.52 L 172.82 171.52" fill="#517d94" fill-rule="nonzero" group-id="1,4,10,11" node-id="210" stroke="none" target-height="0" target-width="0" target-x="172.82" target-y="171.52"></path></g><path d="M 113.49 159.94 L 113.49 151.30 L 117.24 96.80 L 117.24 105.44 L 113.49 159.94 Z" fill="#67c8ff" fill-rule="nonzero" group-id="1" node-id="215" stroke="none" target-height="63.14" target-width="3.75" target-x="113.49" target-y="96.8"></path><path d="M 163.16 105.56 L 163.87 105.72 L 164.18 105.79 L 164.47 105.89 L 164.93 106.06 L 165.23 106.18 L 165.60 106.36 C 165.80 106.46 165.99 106.57 166.18 106.68 L 166.43 106.83 C 166.69 107.00 166.95 107.18 167.19 107.38 L 167.19 107.38 C 167.42 107.57 167.63 107.77 167.84 107.98 L 168.04 108.20 C 168.19 108.36 168.33 108.52 168.46 108.69 L 168.70 109.00 L 168.88 109.27 C 168.97 109.40 169.05 109.53 169.13 109.66 L 169.29 109.95 C 169.29 110.04 169.38 110.14 169.43 110.24 C 169.48 110.34 169.63 110.67 169.71 110.89 L 169.83 111.20 C 169.89 111.38 169.94 111.56 169.98 111.74 C 169.98 111.85 170.05 111.96 170.07 112.07 C 170.09 112.18 170.13 112.40 170.16 112.57 L 170.22 112.94 C 170.22 113.10 170.22 113.27 170.22 113.44 C 170.22 113.61 170.22 113.73 170.22 113.88 L 170.22 105.12 C 170.22 105.02 170.22 104.91 170.22 104.80 C 170.22 104.69 170.22 104.46 170.22 104.30 C 170.21 104.27 170.21 104.25 170.22 104.22 C 170.21 104.12 170.19 104.03 170.17 103.93 C 170.17 103.76 170.17 103.60 170.08 103.44 C 169.99 103.28 170.08 103.37 170.08 103.34 C 170.06 103.26 170.03 103.18 170.00 103.10 C 169.96 102.92 169.91 102.74 169.85 102.56 C 169.84 102.51 169.84 102.47 169.85 102.42 L 169.77 102.26 C 169.69 102.03 169.59 101.82 169.49 101.60 C 169.49 101.60 169.44 101.48 169.41 101.43 L 169.35 101.31 C 169.30 101.21 169.24 101.12 169.19 101.03 C 169.11 100.89 169.03 100.76 168.94 100.64 L 168.76 100.36 L 168.63 100.18 C 168.59 100.14 168.55 100.10 168.52 100.05 C 168.39 99.88 168.25 99.72 168.10 99.56 L 167.90 99.34 C 167.70 99.13 167.48 98.93 167.25 98.75 L 167.25 98.75 C 167.01 98.55 166.75 98.37 166.49 98.20 L 166.24 98.05 C 166.05 97.94 165.86 97.83 165.66 97.73 L 165.52 97.65 L 165.29 97.56 L 164.99 97.43 L 164.53 97.26 L 164.24 97.17 L 164.13 97.17 L 163.93 97.17 C 163.70 97.11 163.46 97.06 163.22 97.02 L 163.05 97.02 L 162.87 97.02 C 162.69 97.01 162.50 97.01 162.32 97.02 L 162.07 97.02 L 117.24 97.02 L 117.24 105.65 L 161.70 105.65 C 161.89 105.65 162.08 105.65 162.26 105.65 L 162.81 105.70 Z" fill="#67c8ff" fill-rule="nonzero" group-id="1" node-id="217" stroke="none" target-height="16.869873" target-width="52.980003" target-x="117.24" target-y="97.010124"></path><path d="M 161.70 105.43 C 166.39 105.43 170.20 109.24 170.20 113.93 C 170.20 118.62 166.39 122.43 161.70 122.43 L 134.13 122.43 L 132.71 143.21 C 134.55 143.06 136.33 143.00 138.03 143.00 C 139.73 143.00 141.21 143.00 142.68 143.12 C 150.26 143.48 159.30 146.48 164.98 151.75 C 170.66 157.02 172.82 163.32 172.82 172.33 C 172.82 182.27 170.46 189.22 163.60 195.54 C 156.74 201.86 147.70 205.23 135.92 205.23 C 129.02 205.23 123.05 205.23 117.70 203.70 C 113.78 202.68 111.25 198.87 111.85 194.87 C 112.44 190.86 115.95 187.94 120.00 188.10 C 120.80 188.10 121.59 188.22 122.35 188.44 C 126.17 189.54 130.12 190.10 134.10 190.09 C 140.02 190.09 144.65 188.65 147.98 185.78 C 151.31 182.91 152.98 179.03 152.98 174.15 C 152.98 163.91 145.86 158.79 131.62 158.79 C 125.54 158.84 119.47 159.22 113.43 159.94 L 117.18 105.43 Z" fill="#8cd7ff" fill-rule="nonzero" group-id="1" node-id="219" stroke="none" target-height="99.799995" target-width="61.56517" target-x="111.25484" target-y="105.43"></path><path d="M 309.61 253.46 C 308.72 253.88 307.73 254.01 306.76 253.85 C 305.76 253.73 303.69 251.60 302.37 251.05 C 300.57 250.06 299.00 248.69 297.76 247.05 C 296.55 245.45 297.02 244.98 297.33 244.73 C 297.05 246.05 299.55 249.07 302.41 250.59 C 305.53 252.25 306.86 253.81 308.29 253.35 C 309.43 252.99 310.84 252.35 311.29 251.27 C 311.70 252.68 310.51 253.00 309.61 253.46 Z" fill="#ebfcff" fill-rule="nonzero" group-id="1" node-id="221" stroke="none" target-height="9.281845" target-width="15.150024" target-x="296.55" target-y="244.73"></path><path d="M 311.11 247.65 C 311.15 248.52 311.24 249.40 311.38 250.26 C 311.63 252.09 309.73 252.91 308.29 253.37 C 306.85 253.83 305.53 252.27 302.41 250.61 C 299.29 248.95 296.61 245.51 297.48 244.43 C 298.30 243.75 300.67 243.88 302.62 245.07 C 303.68 245.70 304.70 246.40 305.67 247.16 L 305.67 247.16 C 305.61 246.97 305.55 246.81 305.53 246.73 C 305.44 246.43 305.82 245.99 306.33 246.40 C 306.84 246.81 309.42 246.40 310.50 245.83 L 310.59 245.78 C 311.59 245.20 311.46 246.07 311.23 246.78 C 311.15 247.06 311.10 247.36 311.11 247.65 Z" fill="#ffb056" fill-rule="nonzero" group-id="1" node-id="223" stroke="none" target-height="10.080002" target-width="15.02002" target-x="296.61" target-y="243.75"></path><path d="M 310.50 245.83 L 310.59 245.78 C 311.59 245.20 311.46 246.07 311.23 246.78 C 311.15 247.06 311.11 247.35 311.11 247.64" fill="none" group-id="1" node-id="225" stroke="#e49056" stroke-linecap="butt" stroke-width="0.25" target-height="2.4400024" target-width="1.0899963" target-x="310.5" target-y="245.2"></path><path d="M 305.30 248.31 C 305.99 248.42 305.84 247.69 305.67 247.17" fill="none" group-id="1" node-id="227" stroke="#e49056" stroke-linecap="butt" stroke-width="0.25" target-height="1.25" target-width="0.69000244" target-x="305.3" target-y="247.17"></path><path d="M 297.34 244.74 L 297.34 244.74 C 297.03 244.99 296.56 245.46 297.77 247.06 C 299.01 248.70 300.58 250.07 302.38 251.06 C 303.70 251.61 305.76 253.74 306.77 253.86 C 307.74 254.02 308.73 253.89 309.62 253.47 C 310.52 253.03 311.71 252.69 311.28 251.30" fill="none" group-id="1" node-id="229" stroke="#4986d9" stroke-linecap="butt" stroke-width="0.13" target-height="9.28183" target-width="15.149994" target-x="296.56" target-y="244.74"></path><path d="M 305.76 168.75 C 305.70 168.90 305.31 169.51 305.31 169.51 L 305.16 169.65 L 304.69 169.47 L 304.24 169.77 L 303.84 169.55 C 303.84 169.55 303.78 169.05 303.48 169.65 C 303.36 169.37 302.62 169.42 301.74 168.89 C 300.97 168.21 300.57 167.20 300.68 166.18 C 300.79 165.57 301.37 165.25 301.02 164.87 C 300.67 164.49 300.54 164.63 300.27 164.79 C 300.00 164.95 299.67 164.47 298.65 164.14 C 298.56 164.14 297.53 161.51 297.88 160.35 C 298.10 159.07 298.90 157.97 300.04 157.35 C 301.60 156.49 303.43 156.25 305.16 156.69 C 306.88 157.21 308.59 157.63 309.24 161.35 C 309.79 163.49 309.18 165.77 307.63 167.35 C 307.33 167.71 306.97 168.00 306.56 168.23 C 306.25 168.51 306.00 168.20 305.76 168.75 Z" fill="#000000" fill-rule="nonzero" group-id="1" node-id="231" stroke="none" target-height="13.52034" target-width="12.25708" target-x="297.53" target-y="156.24966"></path><path d="M 316.53 186.52 C 316.18 186.96 315.72 187.31 315.19 187.52 C 314.15 187.97 312.98 188.04 311.89 187.72 C 312.04 184.18 312.16 181.50 312.16 181.50 L 313.16 173.75 C 313.29 173.90 313.38 174.08 313.43 174.27 C 314.07 176.70 315.88 183.71 316.53 186.52 Z" fill="#e49056" fill-rule="nonzero" group-id="1" node-id="233" stroke="none" target-height="14.294464" target-width="4.639984" target-x="311.89" target-y="173.75"></path><path d="M 315.34 191.29 L 315.34 191.29 C 315.38 191.77 315.18 192.23 314.82 192.54 C 314.45 192.85 313.96 192.97 313.50 192.86 L 310.81 191.62 C 310.87 189.84 311.81 189.24 311.89 187.62 C 312.98 187.94 314.15 187.87 315.19 187.42 Z" fill="#fae6d2" fill-rule="nonzero" group-id="1" node-id="235" stroke="none" target-height="5.5495605" target-width="4.565033" target-x="310.81" target-y="187.42"></path><path d="M 300.82 166.25 C 300.72 167.17 301.06 168.08 301.74 168.70 C 302.51 169.17 303.17 169.13 303.27 169.38 L 303.60 168.70 L 303.93 169.49 L 304.18 168.83 L 304.75 169.38 L 304.83 168.58 C 304.83 168.58 305.20 169.52 305.26 169.38 C 305.45 168.89 305.49 168.95 305.76 168.75 C 305.64 170.07 305.30 172.32 306.23 172.46 L 306.77 172.54 C 305.69 174.27 300.77 173.71 299.99 172.74 C 300.43 172.63 300.84 172.40 301.15 172.07 C 301.74 171.07 302.01 169.07 301.15 168.80 C 300.14 168.56 299.39 167.72 299.27 166.69 C 299.16 166.18 299.04 165.04 298.94 164.24 L 298.94 164.24 C 299.83 164.53 300.08 164.83 300.30 164.70 C 300.43 164.60 300.60 164.56 300.76 164.59 C 300.93 164.61 301.07 164.71 301.17 164.84 C 301.44 165.18 300.91 165.69 300.82 166.25 Z" fill="#ffeed2" fill-rule="nonzero" group-id="1" node-id="237" stroke="none" target-height="10.029999" target-width="7.8299866" target-x="298.94" target-y="164.24"></path><path d="M 294.81 182.83 C 294.90 183.03 294.91 183.26 294.83 183.46 C 294.76 183.67 294.60 183.84 294.40 183.93 L 285.00 188.22 C 284.80 188.31 284.57 188.32 284.37 188.24 C 284.16 188.17 283.99 188.01 283.90 187.81 L 277.85 174.49 C 277.76 174.29 277.75 174.06 277.83 173.86 C 277.90 173.65 278.06 173.48 278.26 173.39 L 287.71 169.10 C 287.91 169.01 288.14 169.00 288.34 169.08 C 288.55 169.15 288.72 169.31 288.81 169.51 Z" fill="#d3d3d3" fill-rule="nonzero" group-id="1" node-id="239" stroke="none" target-height="19.319489" target-width="17.159515" target-x="277.75024" target-y="169.00026"></path><path d="M 288.29 170.34 L 293.43 181.65 C 293.52 181.83 293.54 182.04 293.47 182.23 C 293.40 182.42 293.26 182.57 293.07 182.65 L 284.83 186.40 C 284.65 186.49 284.44 186.50 284.25 186.44 C 284.06 186.37 283.91 186.22 283.83 186.04 L 278.69 174.73 C 278.60 174.55 278.58 174.34 278.65 174.15 C 278.72 173.96 278.86 173.81 279.05 173.73 L 287.29 169.98 C 287.47 169.89 287.68 169.88 287.87 169.94 C 288.06 170.01 288.21 170.16 288.29 170.34 Z" fill="#ffffff" fill-rule="nonzero" group-id="1" node-id="241" stroke="none" target-height="16.628174" target-width="14.957672" target-x="278.58118" target-y="169.87592"></path><path d="M 289.35 184.72 L 289.68 184.92 L 289.76 185.29 L 289.56 185.62 L 289.18 185.70 L 288.86 185.50 L 288.78 185.12 L 288.98 184.80 L 289.35 184.72 Z" fill="#ffffff" fill-rule="nonzero" group-id="1,5" node-id="245" stroke="none" target-height="0.9854431" target-width="0.98547363" target-x="288.77576" target-y="184.71562"></path><path d="M 285.93 190.32 C 285.93 190.32 284.53 188.80 283.93 188.19 C 283.33 187.58 282.07 185.85 281.93 185.73 C 281.79 185.61 280.11 180.37 279.75 180.11 C 279.39 179.85 280.25 179.31 280.89 180.62 C 281.53 181.93 282.75 183.62 283.32 183.62 C 283.89 183.62 283.63 182.03 284.04 181.77 C 284.45 181.51 284.39 181.77 284.54 181.92 C 284.69 182.07 284.20 183.92 284.63 184.57 C 285.06 185.22 284.97 186.36 285.29 186.86 L 287.13 189.74 Z" fill="#ffeed2" fill-rule="nonzero" group-id="1" node-id="248" stroke="none" target-height="11.01001" target-width="7.73999" target-x="279.39" target-y="179.31"></path><path d="M 284.63 188.92 C 284.63 188.92 288.24 193.26 291.63 194.92 C 291.80 195.00 292.85 195.40 293.14 194.82 C 293.63 193.27 293.97 191.68 294.14 190.07 C 294.21 189.73 294.39 186.07 294.39 186.07 L 290.88 185.00 L 290.60 190.53 C 290.60 190.55 290.59 190.57 290.57 190.58 C 290.55 190.59 290.53 190.59 290.51 190.58 L 285.78 187.74 Z" fill="#ffeed2" fill-rule="nonzero" group-id="1" node-id="250" stroke="none" target-height="10.399994" target-width="9.76001" target-x="284.63" target-y="185"></path><path d="M 313.16 173.71 L 312.16 181.46 C 312.16 181.46 312.04 184.14 311.89 187.68 C 311.82 189.27 311.75 191.03 311.69 192.81 C 311.50 198.04 311.36 203.39 311.54 204.71 L 311.26 204.71 C 309.41 204.96 299.45 205.53 295.88 204.95 C 295.53 204.90 295.20 204.80 294.88 204.66 C 295.16 203.07 295.31 183.99 295.31 183.99 C 295.31 183.99 294.96 186.06 294.80 187.66 C 293.17 188.26 292.38 187.98 290.17 187.03 C 290.35 185.65 292.10 177.35 293.36 174.90 C 293.83 174.15 294.63 173.67 295.51 173.61 L 295.51 173.61 C 297.03 173.43 298.54 173.13 300.01 172.69 C 300.77 173.69 305.71 174.22 306.79 172.49 C 308.07 172.67 310.89 173.02 312.33 173.20 C 312.66 173.26 312.96 173.44 313.16 173.71 Z" fill="#ffb056" fill-rule="nonzero" group-id="1" node-id="252" stroke="none" target-height="33.039993" target-width="22.98999" target-x="290.17" target-y="172.49"></path><path d="M 311.26 204.76 L 310.10 225.00 L 310.10 246.00 C 309.57 246.24 307.10 246.89 306.24 246.38 L 305.24 226.16 L 304.24 210.02 C 304.23 209.84 304.15 209.67 304.01 209.55 C 303.87 209.43 303.69 209.37 303.51 209.39 C 303.34 209.40 303.19 209.47 303.07 209.59 C 302.96 209.71 302.89 209.87 302.88 210.03 L 300.12 226.59 L 299.60 243.00 L 299.60 243.05 L 299.33 247.38 C 298.20 247.82 295.57 247.94 295.12 247.50 L 294.38 225.32 L 295.88 204.96 C 299.45 205.58 309.41 205.00 311.26 204.76 Z" fill="#398eed" fill-rule="nonzero" group-id="1" node-id="254" stroke="none" target-height="43.180008" target-width="16.880005" target-x="294.38" target-y="204.76"></path><path d="M 300.08 252.26 C 299.33 252.89 298.41 253.29 297.43 253.39 C 296.43 253.54 293.87 252.02 292.43 251.84 C 290.43 251.37 288.55 250.47 286.93 249.21 C 285.34 247.99 285.68 247.41 285.93 247.09 C 286.00 248.43 289.21 250.69 292.37 251.41 C 295.81 252.19 297.50 253.35 298.77 252.52 C 299.77 251.87 300.98 250.93 301.10 249.73 C 301.88 251.00 300.83 251.60 300.08 252.26 Z" fill="#ebfcff" fill-rule="nonzero" group-id="1" node-id="256" stroke="none" target-height="6.449997" target-width="16.540009" target-x="285.34" target-y="247.09"></path><path d="M 300.00 246.27 C 300.27 247.10 300.59 247.92 300.95 248.71 C 301.67 250.41 300.06 251.71 298.79 252.52 C 297.52 253.33 295.79 252.19 292.39 251.41 C 288.99 250.63 285.45 248.02 286.00 246.75 C 286.62 245.87 288.94 245.38 291.13 246.01 C 292.32 246.34 293.49 246.75 294.63 247.22 L 294.63 247.22 L 294.37 246.84 C 294.21 246.58 294.46 246.05 295.06 246.31 C 295.66 246.57 298.06 245.49 298.93 244.67 L 299.01 244.60 C 299.84 243.76 299.92 244.65 299.89 245.41 C 299.89 245.70 299.92 245.99 300.00 246.27 Z" fill="#ffb056" fill-rule="nonzero" group-id="1" node-id="258" stroke="none" target-height="9.570007" target-width="16.220001" target-x="285.45" target-y="243.76"></path><path d="M 298.92 244.67 L 299.00 244.60 C 299.83 243.76 299.78 244.66 299.88 245.41 C 300.11 246.90 300.52 248.35 301.11 249.73" fill="none" group-id="1" node-id="260" stroke="#e49056" stroke-linecap="butt" stroke-width="0.25" target-height="5.970001" target-width="2.189972" target-x="298.92" target-y="243.76"></path><path d="M 294.56 248.43 C 295.25 248.36 294.92 247.68 294.62 247.23" fill="none" group-id="1" node-id="262" stroke="#e49056" stroke-linecap="butt" stroke-width="0.25" target-height="1.199997" target-width="0.69000244" target-x="294.56" target-y="247.23"></path><path d="M 285.94 247.08 L 285.94 247.08 C 285.71 247.40 285.37 247.98 286.94 249.20 C 288.56 250.46 290.44 251.36 292.44 251.83 C 293.85 252.01 296.44 253.53 297.44 253.38 C 298.42 253.28 299.34 252.88 300.09 252.25 C 300.84 251.59 301.89 250.95 301.09 249.72" fill="none" group-id="1" node-id="264" stroke="#4986d9" stroke-linecap="butt" stroke-width="0.13" target-height="6.449997" target-width="16.52002" target-x="285.37" target-y="247.08"></path></g></svg>