<svg viewBox="0 0 2902.68 1668.51" xmlns:xlink="http://www.w3.org/1999/xlink" xmlns="http://www.w3.org/2000/svg"><defs><style>.cls-1{fill:url(#未命名的渐变_26);}.cls-2{fill:url(#未命名的渐变_26-2);}.cls-3{fill:url(#未命名的渐变_26-3);}.cls-4{fill:url(#未命名的渐变_26-4);}.cls-5{fill:url(#未命名的渐变_26-5);}.cls-6{fill:url(#未命名的渐变_26-6);}.cls-10,.cls-11,.cls-12,.cls-7,.cls-9{opacity:0.4;}.cls-7{fill:url(#未命名的渐变_26-7);}.cls-8{opacity:0.7;}.cls-9{fill:url(#未命名的渐变_26-8);}.cls-10{fill:url(#未命名的渐变_26-9);}.cls-11{fill:url(#未命名的渐变_26-10);}.cls-12{fill:url(#未命名的渐变_26-11);}.cls-13{fill:#3d9ef5;}.cls-14{fill:#40a8f5;}.cls-15{fill:#53b9f5;}.cls-16{fill:#8cd7ff;}.cls-17{opacity:0.21;}.cls-18{fill:#fff;}.cls-19{fill:#257fba;}.cls-20{fill:#398eed;}.cls-21{fill:#e49056;}.cls-22{fill:#ffb056;}.cls-23{fill:#d0864c;}.cls-24{fill:#fae6d2;}.cls-25{fill:#f0dabc;}.cls-26{fill:#ffeed2;}.cls-27{fill:none;stroke:#e49056;stroke-miterlimit:10;stroke-width:1.59px;}.cls-28,.cls-30{opacity:0.2;}.cls-29,.cls-30{fill:#e55c5c;}</style><linearGradient gradientUnits="userSpaceOnUse" y2="1152.91" x2="6.37" y1="581.5" x1="6.37" id="未命名的渐变_26"><stop stop-color="#81cfff" offset="0"></stop><stop stop-opacity="0" stop-color="#5ecfff" offset="1"></stop></linearGradient><linearGradient xlink:href="#未命名的渐变_26" y2="1030.4" x2="2896.31" y1="458.98" x1="2896.31" id="未命名的渐变_26-2"></linearGradient><linearGradient xlink:href="#未命名的渐变_26" y2="1269.97" x2="260.33" y1="915.84" x1="260.33" id="未命名的渐变_26-3"></linearGradient><linearGradient xlink:href="#未命名的渐变_26" y2="784.04" x2="413.59" y1="606.97" x1="413.59" id="未命名的渐变_26-4"></linearGradient><linearGradient xlink:href="#未命名的渐变_26" y2="840.34" x2="2528.5" y1="663.27" x1="2528.5" id="未命名的渐变_26-5"></linearGradient><linearGradient xlink:href="#未命名的渐变_26" y2="1203.85" x2="2703.65" y1="849.71" x1="2703.65" id="未命名的渐变_26-6"></linearGradient><linearGradient xlink:href="#未命名的渐变_26" y2="1668.51" x2="1481.52" y1="1428.56" x1="1481.52" id="未命名的渐变_26-7"></linearGradient><linearGradient xlink:href="#未命名的渐变_26" y2="1298.72" x2="2223.81" y1="169.8" x1="2223.81" id="未命名的渐变_26-8"></linearGradient><linearGradient xlink:href="#未命名的渐变_26" y2="1298.72" x2="1282.31" y1="353.96" x1="1282.31" id="未命名的渐变_26-9"></linearGradient><linearGradient xlink:href="#未命名的渐变_26" y2="1298.72" x2="782.81" y1="169.8" x1="782.81" id="未命名的渐变_26-10"></linearGradient><linearGradient xlink:href="#未命名的渐变_26" y2="1333.77" x2="1741" y1="0" x1="1741" id="未命名的渐变_26-11"></linearGradient></defs><title>资源 73</title><g id="图层_2"><g id="图层_1-2"><rect height="571.41" width="12.73" y="581.5" class="cls-1"></rect><rect height="571.41" width="12.73" y="458.98" x="2889.95" class="cls-2"></rect><rect height="354.14" width="12.73" y="915.84" x="253.97" class="cls-3"></rect><rect height="177.07" width="12.73" y="606.97" x="407.22" class="cls-4"></rect><rect height="177.07" width="12.73" y="663.27" x="2522.13" class="cls-5"></rect><rect height="354.14" width="12.73" y="849.71" x="2697.28" class="cls-6"></rect><path d="M2624.33,1668.51c-146.58-146.58-388.14-240-1142.81-240s-996.23,93.37-1142.81,240Z" class="cls-7"></path><g class="cls-8"><path d="M2423,169.8H2024.6c-9.9,0-17.92,7.39-17.92,16.5V1282.22c0,9.11,8,16.5,17.92,16.5H2423c9.9,0,17.92-7.39,17.92-16.5V186.3C2441,177.19,2432.93,169.8,2423,169.8Zm-333.3,766.13a5.79,5.79,0,0,1-6,5.53h-23a5.79,5.79,0,0,1-6-5.53V810.13a5.79,5.79,0,0,1,6-5.53h23a5.79,5.79,0,0,1,6,5.53Zm0-192.48a5.79,5.79,0,0,1-6,5.54h-23a5.79,5.79,0,0,1-6-5.54V617.66a5.79,5.79,0,0,1,6-5.54h23a5.79,5.79,0,0,1,6,5.54Zm0-192.48a5.79,5.79,0,0,1-6,5.54h-23a5.79,5.79,0,0,1-6-5.54V425.18a5.79,5.79,0,0,1,6-5.54h23a5.79,5.79,0,0,1,6,5.54Zm0-192.48a5.79,5.79,0,0,1-6,5.54h-23a5.79,5.79,0,0,1-6-5.54V232.7a5.79,5.79,0,0,1,6-5.54h23a5.79,5.79,0,0,1,6,5.54Zm74.49,577.44a5.79,5.79,0,0,1-6,5.53h-23a5.79,5.79,0,0,1-6-5.53V810.13a5.79,5.79,0,0,1,6-5.53h23a5.79,5.79,0,0,1,6,5.53Zm0-192.48a5.79,5.79,0,0,1-6,5.54h-23a5.79,5.79,0,0,1-6-5.54V617.66a5.79,5.79,0,0,1,6-5.54h23a5.79,5.79,0,0,1,6,5.54Zm0-192.48a5.79,5.79,0,0,1-6,5.54h-23a5.79,5.79,0,0,1-6-5.54V425.18a5.79,5.79,0,0,1,6-5.54h23a5.79,5.79,0,0,1,6,5.54Zm0-192.48a5.79,5.79,0,0,1-6,5.54h-23a5.79,5.79,0,0,1-6-5.54V232.7a5.79,5.79,0,0,1,6-5.54h23a5.79,5.79,0,0,1,6,5.54Zm74.49,577.44a5.8,5.8,0,0,1-6,5.53h-23a5.79,5.79,0,0,1-6-5.53V810.13a5.79,5.79,0,0,1,6-5.53h23a5.8,5.8,0,0,1,6,5.53Zm0-192.48a5.8,5.8,0,0,1-6,5.54h-23a5.79,5.79,0,0,1-6-5.54V617.66a5.79,5.79,0,0,1,6-5.54h23a5.8,5.8,0,0,1,6,5.54Zm0-192.48a5.8,5.8,0,0,1-6,5.54h-23a5.79,5.79,0,0,1-6-5.54V425.18a5.79,5.79,0,0,1,6-5.54h23a5.8,5.8,0,0,1,6,5.54Zm0-192.48a5.8,5.8,0,0,1-6,5.54h-23a5.79,5.79,0,0,1-6-5.54V232.7a5.79,5.79,0,0,1,6-5.54h23a5.8,5.8,0,0,1,6,5.54Zm74.48,577.44a5.79,5.79,0,0,1-6,5.53h-23a5.79,5.79,0,0,1-6-5.53V810.13a5.79,5.79,0,0,1,6-5.53h23a5.79,5.79,0,0,1,6,5.53Zm0-192.48a5.79,5.79,0,0,1-6,5.54h-23a5.79,5.79,0,0,1-6-5.54V617.66a5.79,5.79,0,0,1,6-5.54h23a5.79,5.79,0,0,1,6,5.54Zm0-192.48a5.79,5.79,0,0,1-6,5.54h-23a5.79,5.79,0,0,1-6-5.54V425.18a5.79,5.79,0,0,1,6-5.54h23a5.79,5.79,0,0,1,6,5.54Zm0-192.48a5.79,5.79,0,0,1-6,5.54h-23a5.79,5.79,0,0,1-6-5.54V232.7a5.79,5.79,0,0,1,6-5.54h23a5.79,5.79,0,0,1,6,5.54Zm74.49,577.44a5.79,5.79,0,0,1-6,5.53h-23a5.8,5.8,0,0,1-6-5.53V810.13a5.8,5.8,0,0,1,6-5.53h23a5.79,5.79,0,0,1,6,5.53Zm0-192.48a5.79,5.79,0,0,1-6,5.54h-23a5.8,5.8,0,0,1-6-5.54V617.66a5.8,5.8,0,0,1,6-5.54h23a5.79,5.79,0,0,1,6,5.54Zm0-192.48a5.79,5.79,0,0,1-6,5.54h-23a5.8,5.8,0,0,1-6-5.54V425.18a5.8,5.8,0,0,1,6-5.54h23a5.79,5.79,0,0,1,6,5.54Zm0-192.48a5.79,5.79,0,0,1-6,5.54h-23a5.8,5.8,0,0,1-6-5.54V232.7a5.8,5.8,0,0,1,6-5.54h23a5.79,5.79,0,0,1,6,5.54Z" class="cls-9"></path><path d="M1471,354H1093.58c-9.9,0-17.92,7.39-17.92,16.5v911.76c0,9.11,8,16.5,17.92,16.5H1471c9.9,0,17.92-7.39,17.92-16.5V370.46C1489,361.35,1480.94,354,1471,354Zm-309.55,660.5c0,3.89-3.43,7-7.66,7h-34.37c-4.23,0-7.66-3.15-7.66-7V981.25c0-3.89,3.43-7,7.66-7h34.37c4.23,0,7.66,3.16,7.66,7Zm0-82c0,3.89-3.43,7-7.66,7h-34.37c-4.23,0-7.66-3.16-7.66-7V899.23c0-3.89,3.43-7,7.66-7h34.37c4.23,0,7.66,3.15,7.66,7Zm0-82c0,3.89-3.43,7.05-7.66,7.05h-34.37c-4.23,0-7.66-3.16-7.66-7.05V817.21c0-3.88,3.43-7,7.66-7h34.37c4.23,0,7.66,3.16,7.66,7Zm0-82c0,3.89-3.43,7-7.66,7h-34.37c-4.23,0-7.66-3.15-7.66-7V735.2c0-3.89,3.43-7.05,7.66-7.05h34.37c4.23,0,7.66,3.16,7.66,7.05Zm0-82c0,3.89-3.43,7.05-7.66,7.05h-34.37c-4.23,0-7.66-3.16-7.66-7.05V653.18c0-3.89,3.43-7,7.66-7h34.37c4.23,0,7.66,3.15,7.66,7Zm0-82c0,3.89-3.43,7-7.66,7h-34.37c-4.23,0-7.66-3.16-7.66-7v-33.2c0-3.89,3.43-7,7.66-7h34.37c4.23,0,7.66,3.16,7.66,7Zm0-82c0,3.89-3.43,7-7.66,7h-34.37c-4.23,0-7.66-3.15-7.66-7V489.15c0-3.89,3.43-7,7.66-7h34.37c4.23,0,7.66,3.16,7.66,7Zm0-82c0,3.89-3.43,7.05-7.66,7.05h-34.37c-4.23,0-7.66-3.16-7.66-7.05V407.13c0-3.89,3.43-7,7.66-7h34.37c4.23,0,7.66,3.15,7.66,7Zm64.14,574.12c0,3.89-3.42,7-7.65,7H1183.6c-4.22,0-7.65-3.15-7.65-7V981.25c0-3.89,3.43-7,7.65-7H1218c4.23,0,7.65,3.16,7.65,7Zm0-82c0,3.89-3.42,7-7.65,7H1183.6c-4.22,0-7.65-3.16-7.65-7V899.23c0-3.89,3.43-7,7.65-7H1218c4.23,0,7.65,3.15,7.65,7Zm0-82c0,3.89-3.42,7.05-7.65,7.05H1183.6c-4.22,0-7.65-3.16-7.65-7.05V817.21c0-3.88,3.43-7,7.65-7H1218c4.23,0,7.65,3.16,7.65,7Zm0-82c0,3.89-3.42,7-7.65,7H1183.6c-4.22,0-7.65-3.15-7.65-7V735.2c0-3.89,3.43-7.05,7.65-7.05H1218c4.23,0,7.65,3.16,7.65,7.05Zm0-82c0,3.89-3.42,7.05-7.65,7.05H1183.6c-4.22,0-7.65-3.16-7.65-7.05V653.18c0-3.89,3.43-7,7.65-7H1218c4.23,0,7.65,3.15,7.65,7Zm0-82c0,3.89-3.42,7-7.65,7H1183.6c-4.22,0-7.65-3.16-7.65-7v-33.2c0-3.89,3.43-7,7.65-7H1218c4.23,0,7.65,3.16,7.65,7Zm0-82c0,3.89-3.42,7-7.65,7H1183.6c-4.22,0-7.65-3.15-7.65-7V489.15c0-3.89,3.43-7,7.65-7H1218c4.23,0,7.65,3.16,7.65,7Zm0-82c0,3.89-3.42,7.05-7.65,7.05H1183.6c-4.22,0-7.65-3.16-7.65-7.05V407.13c0-3.89,3.43-7,7.65-7H1218c4.23,0,7.65,3.15,7.65,7Zm64.15,574.12c0,3.89-3.43,7-7.66,7h-34.37c-4.23,0-7.65-3.15-7.65-7V981.25c0-3.89,3.42-7,7.65-7h34.37c4.23,0,7.66,3.16,7.66,7Zm0-82c0,3.89-3.43,7-7.66,7h-34.37c-4.23,0-7.65-3.16-7.65-7V899.23c0-3.89,3.42-7,7.65-7h34.37c4.23,0,7.66,3.15,7.66,7Zm0-82c0,3.89-3.43,7.05-7.66,7.05h-34.37c-4.23,0-7.65-3.16-7.65-7.05V817.21c0-3.88,3.42-7,7.65-7h34.37c4.23,0,7.66,3.16,7.66,7Zm0-82c0,3.89-3.43,7-7.66,7h-34.37c-4.23,0-7.65-3.15-7.65-7V735.2c0-3.89,3.42-7.05,7.65-7.05h34.37c4.23,0,7.66,3.16,7.66,7.05Zm0-82c0,3.89-3.43,7.05-7.66,7.05h-34.37c-4.23,0-7.65-3.16-7.65-7.05V653.18c0-3.89,3.42-7,7.65-7h34.37c4.23,0,7.66,3.15,7.66,7Zm0-82c0,3.89-3.43,7-7.66,7h-34.37c-4.23,0-7.65-3.16-7.65-7v-33.2c0-3.89,3.42-7,7.65-7h34.37c4.23,0,7.66,3.16,7.66,7Zm0-82c0,3.89-3.43,7-7.66,7h-34.37c-4.23,0-7.65-3.15-7.65-7V489.15c0-3.89,3.42-7,7.65-7h34.37c4.23,0,7.66,3.16,7.66,7Zm0-82c0,3.89-3.43,7.05-7.66,7.05h-34.37c-4.23,0-7.65-3.16-7.65-7.05V407.13c0-3.89,3.42-7,7.65-7h34.37c4.23,0,7.66,3.15,7.66,7Zm160.49,574.12c0,3.89-3.42,7-7.65,7H1311.9c-4.23,0-7.66-3.15-7.66-7V981.25c0-3.89,3.43-7,7.66-7h130.72c4.23,0,7.65,3.16,7.65,7Zm0-82c0,3.89-3.42,7-7.65,7H1311.9c-4.23,0-7.66-3.16-7.66-7V899.23c0-3.89,3.43-7,7.66-7h130.72c4.23,0,7.65,3.15,7.65,7Zm0-82c0,3.89-3.42,7.05-7.65,7.05H1311.9c-4.23,0-7.66-3.16-7.66-7.05V817.21c0-3.88,3.43-7,7.66-7h130.72c4.23,0,7.65,3.16,7.65,7Zm0-82c0,3.89-3.42,7-7.65,7H1311.9c-4.23,0-7.66-3.15-7.66-7V735.2c0-3.89,3.43-7.05,7.66-7.05h130.72c4.23,0,7.65,3.16,7.65,7.05Zm0-82c0,3.89-3.42,7.05-7.65,7.05H1311.9c-4.23,0-7.66-3.16-7.66-7.05V653.18c0-3.89,3.43-7,7.66-7h130.72c4.23,0,7.65,3.15,7.65,7Zm0-82c0,3.89-3.42,7-7.65,7H1311.9c-4.23,0-7.66-3.16-7.66-7v-33.2c0-3.89,3.43-7,7.66-7h130.72c4.23,0,7.65,3.16,7.65,7Zm0-82c0,3.89-3.42,7-7.65,7H1311.9c-4.23,0-7.66-3.15-7.66-7V489.15c0-3.89,3.43-7,7.66-7h130.72c4.23,0,7.65,3.16,7.65,7Zm0-82c0,3.89-3.42,7.05-7.65,7.05H1311.9c-4.23,0-7.66-3.16-7.66-7.05V407.13c0-3.89,3.43-7,7.66-7h130.72c4.23,0,7.65,3.15,7.65,7Z" class="cls-10"></path><path d="M1025.67,169.8H540c-9.9,0-17.92,7.39-17.92,16.5V1282.22c0,9.11,8,16.5,17.92,16.5h485.71c9.9,0,17.92-7.39,17.92-16.5V186.3C1043.59,177.19,1035.57,169.8,1025.67,169.8Zm-43.25,854.72c0,3.89-3.43,7-7.66,7H590.86c-4.22,0-7.65-3.15-7.65-7V991.31c0-3.89,3.43-7,7.65-7h383.9c4.23,0,7.66,3.15,7.66,7Zm0-93.42c0,3.89-3.43,7-7.66,7H590.86c-4.22,0-7.65-3.15-7.65-7V897.89c0-3.89,3.43-7,7.65-7h383.9c4.23,0,7.66,3.16,7.66,7Zm0-93.42c0,3.89-3.43,7-7.66,7H590.86c-4.22,0-7.65-3.15-7.65-7V804.47c0-3.89,3.43-7.05,7.65-7.05h383.9c4.23,0,7.66,3.16,7.66,7.05Zm0-93.42c0,3.89-3.43,7-7.66,7H590.86c-4.22,0-7.65-3.15-7.65-7V711.05c0-3.89,3.43-7,7.65-7h383.9c4.23,0,7.66,3.16,7.66,7Zm0-93.43c0,3.89-3.43,7-7.66,7H590.86c-4.22,0-7.65-3.16-7.65-7v-33.2c0-3.89,3.43-7,7.65-7h383.9c4.23,0,7.66,3.16,7.66,7Zm0-93.42c0,3.89-3.43,7.05-7.66,7.05H590.86c-4.22,0-7.65-3.16-7.65-7.05V524.2c0-3.89,3.43-7,7.65-7h383.9c4.23,0,7.66,3.15,7.66,7Zm0-93.42c0,3.89-3.43,7-7.66,7H590.86c-4.22,0-7.65-3.15-7.65-7V430.78c0-3.89,3.43-7,7.65-7h383.9c4.23,0,7.66,3.15,7.66,7Zm0-93.42c0,3.89-3.43,7-7.66,7H590.86c-4.22,0-7.65-3.15-7.65-7V337.36c0-3.89,3.43-7.05,7.65-7.05h383.9c4.23,0,7.66,3.16,7.66,7.05Zm0-93.42c0,3.89-3.43,7-7.66,7H590.86c-4.22,0-7.65-3.15-7.65-7V243.94c0-3.89,3.43-7.05,7.65-7.05h383.9c4.23,0,7.66,3.16,7.66,7.05Z" class="cls-11"></path><path d="M1949.13,0H1532.88c-8.48,0-15.36,7.38-15.36,16.49V1317.27c0,9.11,6.88,16.5,15.36,16.5h416.25c8.48,0,15.36-7.39,15.36-16.5V16.49C1964.49,7.38,1957.61,0,1949.13,0Zm-37.07,854.72a6.81,6.81,0,0,1-6.56,7h-329a6.81,6.81,0,0,1-6.56-7V821.51a6.82,6.82,0,0,1,6.56-7h329a6.82,6.82,0,0,1,6.56,7Zm0-93.42a6.81,6.81,0,0,1-6.56,7h-329a6.81,6.81,0,0,1-6.56-7V728.09a6.82,6.82,0,0,1,6.56-7.05h329a6.82,6.82,0,0,1,6.56,7.05Zm0-93.42a6.81,6.81,0,0,1-6.56,7h-329a6.81,6.81,0,0,1-6.56-7V634.66a6.81,6.81,0,0,1,6.56-7h329a6.81,6.81,0,0,1,6.56,7Zm0-93.43a6.82,6.82,0,0,1-6.56,7h-329a6.82,6.82,0,0,1-6.56-7V541.24a6.81,6.81,0,0,1,6.56-7h329a6.81,6.81,0,0,1,6.56,7Zm0-93.42a6.82,6.82,0,0,1-6.56,7.05h-329a6.82,6.82,0,0,1-6.56-7.05V447.82a6.81,6.81,0,0,1,6.56-7h329a6.81,6.81,0,0,1,6.56,7Zm0-93.42a6.81,6.81,0,0,1-6.56,7h-329a6.81,6.81,0,0,1-6.56-7V354.4a6.81,6.81,0,0,1,6.56-7h329a6.81,6.81,0,0,1,6.56,7Zm0-93.42a6.81,6.81,0,0,1-6.56,7h-329a6.81,6.81,0,0,1-6.56-7V261a6.82,6.82,0,0,1,6.56-7.05h329a6.82,6.82,0,0,1,6.56,7.05Zm0-93.42a6.81,6.81,0,0,1-6.56,7h-329a6.81,6.81,0,0,1-6.56-7V167.56a6.82,6.82,0,0,1,6.56-7.05h329a6.82,6.82,0,0,1,6.56,7.05Zm0-93.43a6.82,6.82,0,0,1-6.56,7h-329a6.82,6.82,0,0,1-6.56-7V74.13a6.81,6.81,0,0,1,6.56-7h329a6.81,6.81,0,0,1,6.56,7Z" class="cls-12"></path></g><path d="M1212.75,355.09h186.51v15.19h-204a33.84,33.84,0,0,0-26.3,12.51A48.29,48.29,0,0,1,1212.75,355.09Z" class="cls-13"></path><path d="M1839.72,370.28H1635.81V355.09H1820.4a52.14,52.14,0,0,1,46.91,29.41A33.87,33.87,0,0,0,1839.72,370.28Z" class="cls-13"></path><path d="M1601.94,320a33.08,33.08,0,0,1,31.29,22.22l.65,2a16.76,16.76,0,0,0-15-9.07H1416.12a16.74,16.74,0,0,0-14.06,7.57A33.06,33.06,0,0,1,1433.51,320Z" class="cls-13"></path><path d="M1633.88,344.25a16.6,16.6,0,0,1,1.93,7.78v3.06H1399.26V352a16.54,16.54,0,0,1,2.8-9.28,16.74,16.74,0,0,1,14.06-7.57H1618.9A16.76,16.76,0,0,1,1633.88,344.25Z" class="cls-14"></path><rect height="15.19" width="236.54" y="355.09" x="1399.26" class="cls-14"></rect><path d="M1635.81,370.28v18.25a16.91,16.91,0,0,1-16.91,16.91H1416.12a16.87,16.87,0,0,1-16.86-16.91V370.28Z" class="cls-14"></path><path d="M1169,382.79a33.84,33.84,0,0,1,26.3-12.51h204v18.25a16.87,16.87,0,0,0,16.86,16.91H1618.9a16.91,16.91,0,0,0,16.91-16.91V370.28h203.91a33.87,33.87,0,0,1,27.59,14.22c0,.06,0,.06,0,.11a33.52,33.52,0,0,1,6.17,19.49v786.22a33.79,33.79,0,0,1-33.81,33.76H1195.3a33.79,33.79,0,0,1-33.81-33.76V404.1A33.65,33.65,0,0,1,1169,382.79Zm636.53,726V485.63a33.81,33.81,0,0,0-33.76-33.82H1263.31a33.82,33.82,0,0,0-33.82,33.82v623.16a33.77,33.77,0,0,0,33.82,33.76h508.46A33.75,33.75,0,0,0,1805.53,1108.79Z" class="cls-15"></path><path d="M1805.53,485.63v623.16a33.75,33.75,0,0,1-33.76,33.76H1263.31a33.77,33.77,0,0,1-33.82-33.76V485.63a33.82,33.82,0,0,1,33.82-33.82h508.46A33.81,33.81,0,0,1,1805.53,485.63Z" class="cls-16"></path><g class="cls-17"><path d="M1711.81,544.45v6.12A16.85,16.85,0,0,1,1695,567.43h-354.9a16.89,16.89,0,0,1-16.85-16.86v-6.12a16.89,16.89,0,0,1,16.85-16.9H1695A16.86,16.86,0,0,1,1711.81,544.45Z" class="cls-14"></path><path d="M1711.81,687.07v6.12a16.85,16.85,0,0,1-16.85,16.9h-354.9a16.89,16.89,0,0,1-16.85-16.9v-6.12a16.89,16.89,0,0,1,16.85-16.86H1695A16.85,16.85,0,0,1,1711.81,687.07Z" class="cls-14"></path><path d="M1711.81,829.73v6.12A16.82,16.82,0,0,1,1695,852.71h-354.9a16.85,16.85,0,0,1-16.85-16.86v-6.12a16.89,16.89,0,0,1,16.85-16.9H1695A16.86,16.86,0,0,1,1711.81,829.73Z" class="cls-14"></path><path d="M1711.81,972.35v6.17A16.84,16.84,0,0,1,1695,995.37h-354.9a16.88,16.88,0,0,1-16.85-16.85v-6.17a16.89,16.89,0,0,1,16.85-16.86H1695A16.85,16.85,0,0,1,1711.81,972.35Z" class="cls-14"></path></g><path d="M1394.53,715q0-31,16.15-62.72t47.15-52.62q31-20.85,72.31-20.86,38.4,0,67.8,17.44a119.77,119.77,0,0,1,45.42,47.41,136,136,0,0,1,16,65.16q0,27.7-9.14,48.55a150.38,150.38,0,0,1-21.72,36q-12.58,15.15-45.15,51a209.48,209.48,0,0,0-14.44,17.75,74.74,74.74,0,0,0-8.08,14,78.32,78.32,0,0,0-4.1,12.72q-1.47,6.35-4.37,22.31-5,33.9-31.52,33.89-13.77,0-23.18-11.07t-9.4-32.92q0-27.36,6.88-47.4a126.65,126.65,0,0,1,18.28-35.19,470.58,470.58,0,0,1,30.73-36q16.93-18.24,24.49-27.53a95,95,0,0,0,12.72-20.69,59.37,59.37,0,0,0,5.16-24.77q0-26.06-15.76-44t-40.65-17.91q-29.13,0-42.91,18.08t-23.3,53.27q-9,36.82-34.17,36.82-14.84,0-25-12.87T1394.53,715Zm129.25,357.12q-16.15,0-28.21-12.87t-12-36q0-20.53,11.64-34.53t28.61-14q16.68,0,28.07,14t11.39,34.53q0,22.82-11.91,35.84T1523.78,1072.15Z" class="cls-18"></path><path d="M1887.15,1130.82l1.28,9.2c-3.86-1.18-17.54-2.31-31.2-1.56-14.21.76-28.43,3.6-29.44,4.18l-.94-7.23C1831.23,1131,1878.18,1127.83,1887.15,1130.82Z" class="cls-19"></path><path d="M1874.42,1468.76a12.23,12.23,0,0,0,.25,5,41.53,41.53,0,0,1,1.46,8.21s-5.78,2.93-6.81-1.54-2.86-5.6-7.72-5.18c-3.3,6.77-7.83,11-14.9,11.46-3.78,0-36.24,2-43,2.06s-26.44-1.08-27.44-3.45-.83-6.6,1.06-8.4c-.92,6.51,21.7,6.94,34.59,5.77s32.21-1.13,37.44-2.35,5.92-10.31,13.15-10.52a83.66,83.66,0,0,0,11.91-1.08Z" class="cls-20"></path><path d="M1910.42,1514.15c5.08,15.49-1.65,41-20.06,41.65s-26.55-26.59-22.12-36.12c-1.21,10.2,9,29.1,22.25,32,19.66-6.86,20.5-27.35,19.49-37.52Z" class="cls-20"></path><path d="M1852.86,1441.41l2.07,0c1.22,2.39,1.17,6.6,4.56,6.89,3.24.27,13.51-.64,14.43-.72l1.24,18.06a14.23,14.23,0,0,0-.74,3.08h0a83.66,83.66,0,0,1-11.91,1.08c-7.23.21-7.93,9.28-13.15,10.52s-24.54,1.16-37.44,2.35-35.51.74-34.59-5.77,2.54-9.26,10.18-11.23,37-3.2,55.86-12.89c5.29-2.72,1.78-9.71,5.56-11.37C1850.16,1441.41,1851.67,1441.41,1852.86,1441.41Z" class="cls-21"></path><path d="M1875.16,1465.68c1.78-5.06,6.12-9.5,11.66-10,3.73-.11,8.48,2.81,12.23,7v0c3.3,3.67,5.78,8.3,6,12.65.57,9.28,2.89,29.13,4,33.64a43.21,43.21,0,0,1,.86,5.29c1,10.17.17,30.66-19.49,37.52-13.23-2.94-23.46-21.84-22.25-32,1-8.77,9.18-21.46,7.89-37.69a41.53,41.53,0,0,0-1.46-8.21,12.23,12.23,0,0,1-.25-5A14.23,14.23,0,0,1,1875.16,1465.68Z" class="cls-22"></path><path d="M1834.38,1191.59l18.77,110.17s13,96,17.74,132c-9.67,2-15.87.07-18.44-1.09a9,9,0,0,1-1.36-.72l-13.82-125.47-9.48-163.82Z" class="cls-19"></path><path d="M1889.55,1298.58l20.22,139.63a48.91,48.91,0,0,1-12.16,7.48c-6.88,2.89-15.7,4.41-23.88-.77-.5-.31-1-.66-1.5-1-.31-2.32-.77-5.79-1.34-10.14-4.78-36-17.74-132-17.74-132l-18.77-110.17-6.59-48.95c1-.58,15.23-3.42,29.44-4.18,13.66-.75,27.34.38,31.2,1.56l7.13,51.57Z" class="cls-20"></path><path d="M1826.85,1135.41c-2.94-2.91-4.75-4.84-4.75-4.84l1.4-4.66,71.15-17.68,2.57,13.79a3.5,3.5,0,0,1-1.62,3.65l-8.45,5.15C1878.18,1127.83,1831.23,1131,1826.85,1135.41Z" class="cls-22"></path><path d="M1820,1075.33h0l-9.78,13.14a11.53,11.53,0,0,1-16.34,2.21l-62.92-49,1.21-3,6-14.8,59.51,38.81,21.85-47.45h0a115.35,115.35,0,0,0-2,38.32Z" class="cls-21"></path><path d="M1839.65,951.86c-.35,1.28,1.76,5.62,2.19,10.21a29.07,29.07,0,0,1-9.72,2.57C1833.79,963.82,1838.09,954.83,1839.65,951.86Z" class="cls-23"></path><path d="M1874.24,945.25s5.51.37,6.5,2.29a20.37,20.37,0,0,1-5.69,3.33A35.07,35.07,0,0,1,1874.24,945.25Z" class="cls-21"></path><path d="M1847.59,957.54l-10.34,16.79c.92-1.94,4.8-10.15,4.59-12.26-.43-4.59-2.54-8.93-2.19-10.21.49-1.91,9-5.82,11.75-6A23.14,23.14,0,0,1,1847.59,957.54Z" class="cls-21"></path><path d="M1877.63,958.58a22.56,22.56,0,0,0-11.12,2.36c-1.92,1-11.88,7.15-14.77,11,.39-5.6.92-13,.92-13l-2.13-.19a12.73,12.73,0,0,0,.81-3c5.4.22,16.37-1.81,23.71-4.91a20.37,20.37,0,0,0,5.69-3.33c-1.59,3.81-2.32,9.77-1.65,11.16C1878.59,958.64,1878.1,958.59,1877.63,958.58Z" class="cls-22"></path><path d="M1837.25,974.33c4.47-.81,11-9.59,13.28-15.58l2.13.19s-.53,7.39-.92,13c2.89-3.84,12.85-10,14.77-11a22.56,22.56,0,0,1,11.12-2.36c4.7,10.63,13.22,19.45,19.24,24.79a22.25,22.25,0,0,1,7.4,15.5l5.08,94.17a13.83,13.83,0,0,1-10.46,14.15l-4.24,1-71.15,17.68-24,6-.36-1.86-3.29-16.72,27.38-9.6-3.22-28.35h0l-2.49-21.78A115.85,115.85,0,0,1,1834,979.67Z" class="cls-22"></path><path d="M1873.73,1444.92c8.18,5.18,17,3.66,23.88.77l1.44,16.91c-3.75-4.16-8.5-7.08-12.23-7-5.54.55-9.88,5-11.66,10l-1.24-18.06Z" class="cls-24"></path><path d="M1872.23,1443.88c.5.38,1,.73,1.5,1l.19,2.7c-.92.08-11.19,1-14.43.72-3.39-.29-3.34-4.5-4.56-6.89l-2.07,0-.41-8.76c2.57,1.16,8.77,3.11,18.44,1.09C1871.46,1438.09,1871.92,1441.56,1872.23,1443.88Z" class="cls-25"></path><path d="M1875.05,950.87c-7.34,3.1-18.31,5.13-23.71,4.91a12.73,12.73,0,0,1-.81,3c-2.3,6-8.81,14.77-13.28,15.58l3.72-6,6.62-10.76a23.14,23.14,0,0,0,3.81-11.7,28.16,28.16,0,0,0-.12-5.83c-2.39-1.57-6.91.33-12.71-5.69-6.59-6.83-5.48-15-6.43-16-3.11-1.09-6.21-2-5.85-5.37s5.93-7.06,7.6-9.45,3.63-13.8,5.48-17.09c3.9-8.19,31.7-8.27,41.89,2.5,18.36,22.6-6.87,42-6.84,50.52a32.1,32.1,0,0,0-.18,5.86A35.07,35.07,0,0,0,1875.05,950.87Z" class="cls-26"></path><path d="M1724.36,1003.49c3-2.27-6-11.94-2.35-12.59,2.64-.46,4.75-.31,6.31,2.17a9.45,9.45,0,0,1,1.19,5.58c-.16,2.79,3.06,3.57,3.28,10.15.26,7.65,3.85,12.38,5.36,15.07l-6,14.8c-1.08-4.73-8.34-8-17.69-14.26s-21.25-16.15-18.24-24.16c4.91-13,13.23-8,13.9-3.75S1720.72,1005.4,1724.36,1003.49Z" class="cls-26"></path><path d="M1795.83,1113.29l3.29,16.72c-1.91.67-8.16,5.7-12.83,5.76s-7.61-1.35-12-.61-12.55,5.41-16.08,3.08-5.09-4.58-5-6.77c-1.19-1.87-8.32-6.86-3.57-14.09,1.27-1.51,6.4,5.75,10.51,6.39s17.15-.51,17.52-3.48-7.31-.75-9.28-2-2.51-4.77-.43-5.21,12.63-1.68,14-1.75S1793.43,1110.32,1795.83,1113.29Z" class="cls-26"></path><polyline points="1823.21 1103.69 1880.42 1083.68 1869.81 1013.77" class="cls-27"></polyline><line y2="1125.91" x2="1823.5" y1="1108.23" x1="1894.65" class="cls-27"></line><path d="M1877.63,958.58a22.56,22.56,0,0,0-11.12,2.36c-1.92,1-11.88,7.15-14.77,11,.39-5.6.92-13,.92-13" class="cls-27"></path><path d="M1872.51,1004.92c1.83-4.68,7.24-13.82,22.54-16.5" class="cls-27"></path><g class="cls-28"><path d="M1722.25,1003.93a3.89,3.89,0,0,0,2.3-.62c-.8,1.85-1.36,7,1.24,12C1721.79,1011.9,1720,1005.63,1722.25,1003.93Z" class="cls-29"></path></g><path d="M1897.26,907.33c-.32-5.31-3.75-16.94-5.81-19.76l-.17-.22c-2.11-2.89-8.42-11.59-17.93-10.49-1.58-2.08-5.73-4.07-10.63-5.05-4.06-.82-14.38-2-23.24,4.56-3.21-1-6.15,1.34-7.2,2.17-2.19,2.13-2.35,5.4-2.47,8a18,18,0,0,1-.22,2.4,3,3,0,0,1-1.79,2.17,2.81,2.81,0,0,1-2.67-.33l-2.18-1.46,1,2.42c.71,1.74,3.5,3.38,6,3.53a7,7,0,0,0,3.57-.79,3.88,3.88,0,0,1,1.19-.42c.28,0,.73.43,1.1.84a2.74,2.74,0,0,0,1.54,1.1c.76.11,1.36-.6,2.33-1.78a16.15,16.15,0,0,1,2-2.19,1.55,1.55,0,0,0,.13.93,1.27,1.27,0,0,0,.86.72,4.2,4.2,0,0,0,2-.32,5,5,0,0,1,2.52-.37c2.25.62,2.53,2.52,2.66,4.93.09,1.45.16,2.82,1.38,3.09,1.54.39,2.91-.53,4.11-1.34,1.6-1.06,2.27-1.4,3-.65,1.43,1.44,1.08,4.59.48,7.79a20.71,20.71,0,0,0,.65,8.29c.13.59.24,1,.27,1.33l.28,3,1.24-2.8c.25-.57.55-1.43.91-2.41.82-2.3,2.52-7.07,3.81-7.42.91-.25,3.17.77,5,2.22,1.39,1.12,1.87,2,1.85,2.28a39.76,39.76,0,0,1-1,4.22c-1.48,5.65-2.57,10.12-1.91,11.92a10.08,10.08,0,0,0,3,4.13c.25.24.47.43.61.6.42.53.82,1.88.39,5.35l1.53.4a16.25,16.25,0,0,1,5.66-7.23l.32-.25a27.32,27.32,0,0,1,3.65-2.19c2.32-1.26,4.72-2.56,5.8-4.05C1892.37,922.19,1897.6,913,1897.26,907.33Z"></path><ellipse transform="translate(497.81 2473.07) rotate(-74.71)" ry="5.45" rx="7.95" cy="910.47" cx="1868.76" class="cls-26"></ellipse><ellipse transform="translate(497.81 2473.07) rotate(-74.71)" ry="3.19" rx="4.64" cy="910.47" cx="1868.76" class="cls-30"></ellipse></g></g></svg>